G04 (created by PCBNEW (2013-07-07 BZR 4022)-stable) date 8/2/2014 11:46:22 PM*
%MOIN*%
G04 Gerber Fmt 3.4, Leading zero omitted, Abs format*
%FSLAX34Y34*%
G01*
G70*
G90*
G04 APERTURE LIST*
%ADD10C,0.00590551*%
%ADD11C,0.006*%
%ADD12C,0.008*%
%ADD13C,0.005*%
%ADD14C,0.0001*%
G04 APERTURE END LIST*
G54D10*
G54D11*
X73799Y-56185D02*
X73814Y-56171D01*
X73842Y-56128D01*
X73857Y-56100D01*
X73871Y-56057D01*
X73885Y-55985D01*
X73885Y-55928D01*
X73871Y-55857D01*
X73857Y-55814D01*
X73842Y-55785D01*
X73814Y-55742D01*
X73799Y-55728D01*
X73714Y-55871D02*
X73642Y-56071D01*
X73571Y-55871D01*
X73300Y-56071D02*
X73471Y-56071D01*
X73385Y-56071D02*
X73385Y-55771D01*
X73414Y-55814D01*
X73442Y-55842D01*
X73471Y-55857D01*
X73200Y-56185D02*
X73185Y-56171D01*
X73157Y-56128D01*
X73142Y-56100D01*
X73128Y-56057D01*
X73114Y-55985D01*
X73114Y-55928D01*
X73128Y-55857D01*
X73142Y-55814D01*
X73157Y-55785D01*
X73185Y-55742D01*
X73200Y-55728D01*
G54D12*
X78297Y-55411D02*
X78297Y-55011D01*
X77878Y-55373D02*
X77897Y-55392D01*
X77954Y-55411D01*
X77992Y-55411D01*
X78049Y-55392D01*
X78088Y-55354D01*
X78107Y-55316D01*
X78126Y-55240D01*
X78126Y-55183D01*
X78107Y-55107D01*
X78088Y-55069D01*
X78049Y-55030D01*
X77992Y-55011D01*
X77954Y-55011D01*
X77897Y-55030D01*
X77878Y-55050D01*
X77516Y-55411D02*
X77707Y-55411D01*
X77707Y-55011D01*
X77421Y-55011D02*
X77154Y-55011D01*
X77326Y-55411D01*
X76830Y-55011D02*
X76907Y-55011D01*
X76945Y-55030D01*
X76964Y-55050D01*
X77002Y-55107D01*
X77021Y-55183D01*
X77021Y-55335D01*
X77002Y-55373D01*
X76983Y-55392D01*
X76945Y-55411D01*
X76869Y-55411D01*
X76830Y-55392D01*
X76811Y-55373D01*
X76792Y-55335D01*
X76792Y-55240D01*
X76811Y-55202D01*
X76830Y-55183D01*
X76869Y-55164D01*
X76945Y-55164D01*
X76983Y-55183D01*
X77002Y-55202D01*
X77021Y-55240D01*
X76450Y-55011D02*
X76526Y-55011D01*
X76564Y-55030D01*
X76583Y-55050D01*
X76621Y-55107D01*
X76640Y-55183D01*
X76640Y-55335D01*
X76621Y-55373D01*
X76602Y-55392D01*
X76564Y-55411D01*
X76488Y-55411D01*
X76450Y-55392D01*
X76430Y-55373D01*
X76411Y-55335D01*
X76411Y-55240D01*
X76430Y-55202D01*
X76450Y-55183D01*
X76488Y-55164D01*
X76564Y-55164D01*
X76602Y-55183D01*
X76621Y-55202D01*
X76640Y-55240D01*
X76164Y-55011D02*
X76126Y-55011D01*
X76088Y-55030D01*
X76069Y-55050D01*
X76050Y-55088D01*
X76030Y-55164D01*
X76030Y-55259D01*
X76050Y-55335D01*
X76069Y-55373D01*
X76088Y-55392D01*
X76126Y-55411D01*
X76164Y-55411D01*
X76202Y-55392D01*
X76221Y-55373D01*
X76240Y-55335D01*
X76259Y-55259D01*
X76259Y-55164D01*
X76240Y-55088D01*
X76221Y-55050D01*
X76202Y-55030D01*
X76164Y-55011D01*
X75859Y-55259D02*
X75554Y-55259D01*
X75364Y-55411D02*
X75364Y-55011D01*
X75364Y-55164D02*
X75326Y-55145D01*
X75250Y-55145D01*
X75211Y-55164D01*
X75192Y-55183D01*
X75173Y-55221D01*
X75173Y-55335D01*
X75192Y-55373D01*
X75211Y-55392D01*
X75250Y-55411D01*
X75326Y-55411D01*
X75364Y-55392D01*
X74830Y-55411D02*
X74830Y-55202D01*
X74850Y-55164D01*
X74888Y-55145D01*
X74964Y-55145D01*
X75002Y-55164D01*
X74830Y-55392D02*
X74869Y-55411D01*
X74964Y-55411D01*
X75002Y-55392D01*
X75021Y-55354D01*
X75021Y-55316D01*
X75002Y-55278D01*
X74964Y-55259D01*
X74869Y-55259D01*
X74830Y-55240D01*
X74659Y-55392D02*
X74621Y-55411D01*
X74545Y-55411D01*
X74507Y-55392D01*
X74488Y-55354D01*
X74488Y-55335D01*
X74507Y-55297D01*
X74545Y-55278D01*
X74602Y-55278D01*
X74640Y-55259D01*
X74659Y-55221D01*
X74659Y-55202D01*
X74640Y-55164D01*
X74602Y-55145D01*
X74545Y-55145D01*
X74507Y-55164D01*
X74164Y-55392D02*
X74202Y-55411D01*
X74278Y-55411D01*
X74316Y-55392D01*
X74335Y-55354D01*
X74335Y-55202D01*
X74316Y-55164D01*
X74278Y-55145D01*
X74202Y-55145D01*
X74164Y-55164D01*
X74145Y-55202D01*
X74145Y-55240D01*
X74335Y-55278D01*
X73802Y-55411D02*
X73802Y-55011D01*
X73802Y-55392D02*
X73840Y-55411D01*
X73916Y-55411D01*
X73954Y-55392D01*
X73973Y-55373D01*
X73992Y-55335D01*
X73992Y-55221D01*
X73973Y-55183D01*
X73954Y-55164D01*
X73916Y-55145D01*
X73840Y-55145D01*
X73802Y-55164D01*
X77964Y-56051D02*
X77964Y-55651D01*
X77735Y-56051D01*
X77735Y-55651D01*
X77392Y-56032D02*
X77430Y-56051D01*
X77507Y-56051D01*
X77545Y-56032D01*
X77564Y-55994D01*
X77564Y-55842D01*
X77545Y-55804D01*
X77507Y-55785D01*
X77430Y-55785D01*
X77392Y-55804D01*
X77373Y-55842D01*
X77373Y-55880D01*
X77564Y-55918D01*
X77030Y-55785D02*
X77030Y-56109D01*
X77050Y-56147D01*
X77069Y-56166D01*
X77107Y-56185D01*
X77164Y-56185D01*
X77202Y-56166D01*
X77030Y-56032D02*
X77069Y-56051D01*
X77145Y-56051D01*
X77183Y-56032D01*
X77202Y-56013D01*
X77221Y-55975D01*
X77221Y-55861D01*
X77202Y-55823D01*
X77183Y-55804D01*
X77145Y-55785D01*
X77069Y-55785D01*
X77030Y-55804D01*
X76669Y-56051D02*
X76669Y-55842D01*
X76688Y-55804D01*
X76726Y-55785D01*
X76802Y-55785D01*
X76840Y-55804D01*
X76669Y-56032D02*
X76707Y-56051D01*
X76802Y-56051D01*
X76840Y-56032D01*
X76859Y-55994D01*
X76859Y-55956D01*
X76840Y-55918D01*
X76802Y-55899D01*
X76707Y-55899D01*
X76669Y-55880D01*
X76535Y-55785D02*
X76383Y-55785D01*
X76478Y-55651D02*
X76478Y-55994D01*
X76459Y-56032D01*
X76421Y-56051D01*
X76383Y-56051D01*
X76250Y-56051D02*
X76250Y-55785D01*
X76250Y-55651D02*
X76269Y-55670D01*
X76250Y-55690D01*
X76230Y-55670D01*
X76250Y-55651D01*
X76250Y-55690D01*
X76097Y-55785D02*
X76002Y-56051D01*
X75907Y-55785D01*
X75602Y-56032D02*
X75640Y-56051D01*
X75716Y-56051D01*
X75754Y-56032D01*
X75773Y-55994D01*
X75773Y-55842D01*
X75754Y-55804D01*
X75716Y-55785D01*
X75640Y-55785D01*
X75602Y-55804D01*
X75583Y-55842D01*
X75583Y-55880D01*
X75773Y-55918D01*
X74878Y-56051D02*
X75011Y-55861D01*
X75107Y-56051D02*
X75107Y-55651D01*
X74954Y-55651D01*
X74916Y-55670D01*
X74897Y-55690D01*
X74878Y-55728D01*
X74878Y-55785D01*
X74897Y-55823D01*
X74916Y-55842D01*
X74954Y-55861D01*
X75107Y-55861D01*
X74535Y-56051D02*
X74535Y-55842D01*
X74554Y-55804D01*
X74592Y-55785D01*
X74669Y-55785D01*
X74707Y-55804D01*
X74535Y-56032D02*
X74573Y-56051D01*
X74669Y-56051D01*
X74707Y-56032D01*
X74726Y-55994D01*
X74726Y-55956D01*
X74707Y-55918D01*
X74669Y-55899D01*
X74573Y-55899D01*
X74535Y-55880D01*
X74345Y-56051D02*
X74345Y-55785D01*
X74345Y-55651D02*
X74364Y-55670D01*
X74345Y-55690D01*
X74326Y-55670D01*
X74345Y-55651D01*
X74345Y-55690D01*
X74097Y-56051D02*
X74135Y-56032D01*
X74154Y-55994D01*
X74154Y-55651D01*
G54D13*
X79276Y-56634D02*
X79276Y-56836D01*
X79288Y-56860D01*
X79300Y-56872D01*
X79323Y-56884D01*
X79359Y-56884D01*
X79383Y-56872D01*
X79276Y-56789D02*
X79300Y-56801D01*
X79347Y-56801D01*
X79371Y-56789D01*
X79383Y-56777D01*
X79395Y-56753D01*
X79395Y-56682D01*
X79383Y-56658D01*
X79371Y-56646D01*
X79347Y-56634D01*
X79300Y-56634D01*
X79276Y-56646D01*
X79157Y-56801D02*
X79157Y-56634D01*
X79157Y-56551D02*
X79169Y-56563D01*
X79157Y-56575D01*
X79145Y-56563D01*
X79157Y-56551D01*
X79157Y-56575D01*
X79073Y-56634D02*
X78978Y-56634D01*
X79038Y-56551D02*
X79038Y-56765D01*
X79026Y-56789D01*
X79002Y-56801D01*
X78978Y-56801D01*
X78895Y-56801D02*
X78895Y-56551D01*
X78788Y-56801D02*
X78788Y-56670D01*
X78800Y-56646D01*
X78823Y-56634D01*
X78859Y-56634D01*
X78883Y-56646D01*
X78895Y-56658D01*
X78561Y-56634D02*
X78561Y-56801D01*
X78669Y-56634D02*
X78669Y-56765D01*
X78657Y-56789D01*
X78633Y-56801D01*
X78597Y-56801D01*
X78573Y-56789D01*
X78561Y-56777D01*
X78442Y-56801D02*
X78442Y-56551D01*
X78442Y-56646D02*
X78419Y-56634D01*
X78371Y-56634D01*
X78347Y-56646D01*
X78335Y-56658D01*
X78323Y-56682D01*
X78323Y-56753D01*
X78335Y-56777D01*
X78347Y-56789D01*
X78371Y-56801D01*
X78419Y-56801D01*
X78442Y-56789D01*
X78216Y-56777D02*
X78204Y-56789D01*
X78216Y-56801D01*
X78228Y-56789D01*
X78216Y-56777D01*
X78216Y-56801D01*
X77990Y-56789D02*
X78014Y-56801D01*
X78061Y-56801D01*
X78085Y-56789D01*
X78097Y-56777D01*
X78109Y-56753D01*
X78109Y-56682D01*
X78097Y-56658D01*
X78085Y-56646D01*
X78061Y-56634D01*
X78014Y-56634D01*
X77990Y-56646D01*
X77847Y-56801D02*
X77871Y-56789D01*
X77883Y-56777D01*
X77895Y-56753D01*
X77895Y-56682D01*
X77883Y-56658D01*
X77871Y-56646D01*
X77847Y-56634D01*
X77811Y-56634D01*
X77788Y-56646D01*
X77776Y-56658D01*
X77764Y-56682D01*
X77764Y-56753D01*
X77776Y-56777D01*
X77788Y-56789D01*
X77811Y-56801D01*
X77847Y-56801D01*
X77657Y-56801D02*
X77657Y-56634D01*
X77657Y-56658D02*
X77645Y-56646D01*
X77621Y-56634D01*
X77585Y-56634D01*
X77561Y-56646D01*
X77550Y-56670D01*
X77550Y-56801D01*
X77550Y-56670D02*
X77538Y-56646D01*
X77514Y-56634D01*
X77478Y-56634D01*
X77454Y-56646D01*
X77442Y-56670D01*
X77442Y-56801D01*
X77145Y-56539D02*
X77359Y-56860D01*
X77061Y-56634D02*
X77061Y-56884D01*
X77061Y-56646D02*
X77038Y-56634D01*
X76990Y-56634D01*
X76966Y-56646D01*
X76954Y-56658D01*
X76942Y-56682D01*
X76942Y-56753D01*
X76954Y-56777D01*
X76966Y-56789D01*
X76990Y-56801D01*
X77038Y-56801D01*
X77061Y-56789D01*
X76740Y-56789D02*
X76764Y-56801D01*
X76811Y-56801D01*
X76835Y-56789D01*
X76847Y-56765D01*
X76847Y-56670D01*
X76835Y-56646D01*
X76811Y-56634D01*
X76764Y-56634D01*
X76740Y-56646D01*
X76728Y-56670D01*
X76728Y-56694D01*
X76847Y-56717D01*
X76621Y-56634D02*
X76621Y-56884D01*
X76621Y-56646D02*
X76597Y-56634D01*
X76550Y-56634D01*
X76526Y-56646D01*
X76514Y-56658D01*
X76502Y-56682D01*
X76502Y-56753D01*
X76514Y-56777D01*
X76526Y-56789D01*
X76550Y-56801D01*
X76597Y-56801D01*
X76621Y-56789D01*
X76288Y-56801D02*
X76288Y-56670D01*
X76300Y-56646D01*
X76323Y-56634D01*
X76371Y-56634D01*
X76395Y-56646D01*
X76288Y-56789D02*
X76311Y-56801D01*
X76371Y-56801D01*
X76395Y-56789D01*
X76407Y-56765D01*
X76407Y-56741D01*
X76395Y-56717D01*
X76371Y-56705D01*
X76311Y-56705D01*
X76288Y-56694D01*
X76180Y-56789D02*
X76157Y-56801D01*
X76109Y-56801D01*
X76085Y-56789D01*
X76073Y-56765D01*
X76073Y-56753D01*
X76085Y-56729D01*
X76109Y-56717D01*
X76145Y-56717D01*
X76169Y-56705D01*
X76180Y-56682D01*
X76180Y-56670D01*
X76169Y-56646D01*
X76145Y-56634D01*
X76109Y-56634D01*
X76085Y-56646D01*
X75930Y-56801D02*
X75954Y-56789D01*
X75966Y-56765D01*
X75966Y-56551D01*
X75728Y-56801D02*
X75728Y-56670D01*
X75740Y-56646D01*
X75764Y-56634D01*
X75811Y-56634D01*
X75835Y-56646D01*
X75728Y-56789D02*
X75752Y-56801D01*
X75811Y-56801D01*
X75835Y-56789D01*
X75847Y-56765D01*
X75847Y-56741D01*
X75835Y-56717D01*
X75811Y-56705D01*
X75752Y-56705D01*
X75728Y-56694D01*
X75609Y-56801D02*
X75609Y-56551D01*
X75609Y-56646D02*
X75585Y-56634D01*
X75538Y-56634D01*
X75514Y-56646D01*
X75502Y-56658D01*
X75490Y-56682D01*
X75490Y-56753D01*
X75502Y-56777D01*
X75514Y-56789D01*
X75538Y-56801D01*
X75585Y-56801D01*
X75609Y-56789D01*
X75395Y-56789D02*
X75371Y-56801D01*
X75323Y-56801D01*
X75299Y-56789D01*
X75288Y-56765D01*
X75288Y-56753D01*
X75299Y-56729D01*
X75323Y-56717D01*
X75359Y-56717D01*
X75383Y-56705D01*
X75395Y-56682D01*
X75395Y-56670D01*
X75383Y-56646D01*
X75359Y-56634D01*
X75323Y-56634D01*
X75299Y-56646D01*
X75002Y-56539D02*
X75216Y-56860D01*
X74919Y-56801D02*
X74919Y-56551D01*
X74776Y-56801D01*
X74776Y-56551D01*
X74561Y-56789D02*
X74585Y-56801D01*
X74633Y-56801D01*
X74657Y-56789D01*
X74669Y-56765D01*
X74669Y-56670D01*
X74657Y-56646D01*
X74633Y-56634D01*
X74585Y-56634D01*
X74561Y-56646D01*
X74549Y-56670D01*
X74549Y-56694D01*
X74669Y-56717D01*
X74335Y-56634D02*
X74335Y-56836D01*
X74347Y-56860D01*
X74359Y-56872D01*
X74383Y-56884D01*
X74419Y-56884D01*
X74442Y-56872D01*
X74335Y-56789D02*
X74359Y-56801D01*
X74407Y-56801D01*
X74430Y-56789D01*
X74442Y-56777D01*
X74454Y-56753D01*
X74454Y-56682D01*
X74442Y-56658D01*
X74430Y-56646D01*
X74407Y-56634D01*
X74359Y-56634D01*
X74335Y-56646D01*
X74109Y-56801D02*
X74109Y-56670D01*
X74121Y-56646D01*
X74145Y-56634D01*
X74192Y-56634D01*
X74216Y-56646D01*
X74109Y-56789D02*
X74133Y-56801D01*
X74192Y-56801D01*
X74216Y-56789D01*
X74228Y-56765D01*
X74228Y-56741D01*
X74216Y-56717D01*
X74192Y-56705D01*
X74133Y-56705D01*
X74109Y-56694D01*
X74026Y-56634D02*
X73930Y-56634D01*
X73990Y-56551D02*
X73990Y-56765D01*
X73978Y-56789D01*
X73954Y-56801D01*
X73930Y-56801D01*
X73847Y-56801D02*
X73847Y-56634D01*
X73847Y-56551D02*
X73859Y-56563D01*
X73847Y-56575D01*
X73835Y-56563D01*
X73847Y-56551D01*
X73847Y-56575D01*
X73752Y-56634D02*
X73692Y-56801D01*
X73633Y-56634D01*
X73442Y-56789D02*
X73466Y-56801D01*
X73514Y-56801D01*
X73538Y-56789D01*
X73549Y-56765D01*
X73549Y-56670D01*
X73538Y-56646D01*
X73514Y-56634D01*
X73466Y-56634D01*
X73442Y-56646D01*
X73430Y-56670D01*
X73430Y-56694D01*
X73549Y-56717D01*
X73180Y-56801D02*
X73264Y-56682D01*
X73323Y-56801D02*
X73323Y-56551D01*
X73228Y-56551D01*
X73204Y-56563D01*
X73192Y-56575D01*
X73180Y-56598D01*
X73180Y-56634D01*
X73192Y-56658D01*
X73204Y-56670D01*
X73228Y-56682D01*
X73323Y-56682D01*
X72966Y-56801D02*
X72966Y-56670D01*
X72978Y-56646D01*
X73002Y-56634D01*
X73049Y-56634D01*
X73073Y-56646D01*
X72966Y-56789D02*
X72990Y-56801D01*
X73049Y-56801D01*
X73073Y-56789D01*
X73085Y-56765D01*
X73085Y-56741D01*
X73073Y-56717D01*
X73049Y-56705D01*
X72990Y-56705D01*
X72966Y-56694D01*
X72847Y-56801D02*
X72847Y-56634D01*
X72847Y-56551D02*
X72859Y-56563D01*
X72847Y-56575D01*
X72835Y-56563D01*
X72847Y-56551D01*
X72847Y-56575D01*
X72692Y-56801D02*
X72716Y-56789D01*
X72728Y-56765D01*
X72728Y-56551D01*
G54D14*
G36*
X76977Y-61707D02*
X76969Y-61703D01*
X76950Y-61691D01*
X76924Y-61674D01*
X76893Y-61653D01*
X76862Y-61632D01*
X76836Y-61615D01*
X76818Y-61603D01*
X76811Y-61599D01*
X76807Y-61600D01*
X76792Y-61608D01*
X76770Y-61619D01*
X76758Y-61625D01*
X76738Y-61634D01*
X76728Y-61636D01*
X76727Y-61633D01*
X76719Y-61618D01*
X76708Y-61592D01*
X76693Y-61558D01*
X76676Y-61518D01*
X76658Y-61475D01*
X76640Y-61431D01*
X76622Y-61389D01*
X76607Y-61351D01*
X76594Y-61321D01*
X76586Y-61299D01*
X76583Y-61290D01*
X76584Y-61288D01*
X76594Y-61279D01*
X76611Y-61266D01*
X76649Y-61235D01*
X76685Y-61189D01*
X76708Y-61137D01*
X76715Y-61079D01*
X76709Y-61026D01*
X76688Y-60975D01*
X76652Y-60928D01*
X76608Y-60894D01*
X76557Y-60872D01*
X76500Y-60865D01*
X76445Y-60871D01*
X76393Y-60892D01*
X76346Y-60927D01*
X76327Y-60950D01*
X76300Y-60997D01*
X76284Y-61047D01*
X76283Y-61059D01*
X76285Y-61115D01*
X76301Y-61168D01*
X76330Y-61215D01*
X76371Y-61254D01*
X76376Y-61258D01*
X76395Y-61272D01*
X76407Y-61281D01*
X76417Y-61289D01*
X76347Y-61459D01*
X76336Y-61486D01*
X76316Y-61532D01*
X76299Y-61572D01*
X76286Y-61604D01*
X76276Y-61625D01*
X76272Y-61634D01*
X76272Y-61634D01*
X76266Y-61635D01*
X76253Y-61630D01*
X76229Y-61619D01*
X76213Y-61611D01*
X76195Y-61602D01*
X76187Y-61599D01*
X76180Y-61603D01*
X76163Y-61614D01*
X76138Y-61631D01*
X76108Y-61651D01*
X76079Y-61671D01*
X76052Y-61689D01*
X76033Y-61701D01*
X76023Y-61706D01*
X76022Y-61706D01*
X76014Y-61701D01*
X75998Y-61689D01*
X75975Y-61667D01*
X75943Y-61635D01*
X75938Y-61630D01*
X75911Y-61602D01*
X75889Y-61579D01*
X75874Y-61563D01*
X75869Y-61556D01*
X75869Y-61556D01*
X75874Y-61546D01*
X75886Y-61527D01*
X75904Y-61500D01*
X75925Y-61469D01*
X75981Y-61387D01*
X75950Y-61310D01*
X75941Y-61287D01*
X75929Y-61258D01*
X75920Y-61238D01*
X75915Y-61229D01*
X75907Y-61226D01*
X75886Y-61221D01*
X75855Y-61214D01*
X75819Y-61208D01*
X75784Y-61201D01*
X75753Y-61195D01*
X75730Y-61191D01*
X75720Y-61189D01*
X75718Y-61187D01*
X75716Y-61182D01*
X75714Y-61172D01*
X75714Y-61153D01*
X75713Y-61123D01*
X75713Y-61079D01*
X75713Y-61075D01*
X75714Y-61033D01*
X75714Y-61000D01*
X75715Y-60979D01*
X75717Y-60971D01*
X75717Y-60971D01*
X75727Y-60968D01*
X75749Y-60964D01*
X75780Y-60957D01*
X75818Y-60950D01*
X75820Y-60950D01*
X75857Y-60943D01*
X75888Y-60936D01*
X75910Y-60931D01*
X75919Y-60928D01*
X75921Y-60926D01*
X75929Y-60911D01*
X75940Y-60888D01*
X75952Y-60860D01*
X75964Y-60831D01*
X75975Y-60804D01*
X75982Y-60785D01*
X75984Y-60776D01*
X75984Y-60776D01*
X75978Y-60767D01*
X75965Y-60747D01*
X75947Y-60721D01*
X75925Y-60689D01*
X75924Y-60686D01*
X75902Y-60655D01*
X75885Y-60628D01*
X75873Y-60609D01*
X75869Y-60601D01*
X75869Y-60600D01*
X75876Y-60591D01*
X75892Y-60573D01*
X75915Y-60549D01*
X75943Y-60521D01*
X75952Y-60513D01*
X75982Y-60483D01*
X76003Y-60463D01*
X76017Y-60453D01*
X76023Y-60450D01*
X76023Y-60451D01*
X76033Y-60456D01*
X76053Y-60469D01*
X76080Y-60488D01*
X76112Y-60509D01*
X76114Y-60511D01*
X76145Y-60532D01*
X76171Y-60550D01*
X76190Y-60562D01*
X76198Y-60567D01*
X76200Y-60567D01*
X76212Y-60563D01*
X76235Y-60556D01*
X76262Y-60545D01*
X76291Y-60533D01*
X76318Y-60522D01*
X76338Y-60513D01*
X76347Y-60508D01*
X76347Y-60507D01*
X76351Y-60496D01*
X76356Y-60472D01*
X76363Y-60440D01*
X76370Y-60401D01*
X76371Y-60395D01*
X76378Y-60358D01*
X76384Y-60327D01*
X76389Y-60305D01*
X76391Y-60296D01*
X76396Y-60295D01*
X76415Y-60294D01*
X76443Y-60293D01*
X76477Y-60293D01*
X76512Y-60293D01*
X76546Y-60294D01*
X76576Y-60295D01*
X76597Y-60296D01*
X76606Y-60298D01*
X76607Y-60299D01*
X76610Y-60310D01*
X76615Y-60334D01*
X76622Y-60366D01*
X76629Y-60405D01*
X76630Y-60412D01*
X76637Y-60449D01*
X76644Y-60480D01*
X76648Y-60501D01*
X76651Y-60509D01*
X76654Y-60511D01*
X76669Y-60518D01*
X76694Y-60528D01*
X76726Y-60541D01*
X76798Y-60570D01*
X76886Y-60509D01*
X76894Y-60504D01*
X76926Y-60482D01*
X76952Y-60465D01*
X76970Y-60453D01*
X76978Y-60449D01*
X76978Y-60449D01*
X76987Y-60457D01*
X77005Y-60473D01*
X77029Y-60497D01*
X77056Y-60524D01*
X77077Y-60545D01*
X77101Y-60570D01*
X77117Y-60586D01*
X77125Y-60597D01*
X77128Y-60604D01*
X77127Y-60608D01*
X77122Y-60617D01*
X77109Y-60636D01*
X77091Y-60663D01*
X77069Y-60694D01*
X77051Y-60721D01*
X77032Y-60750D01*
X77020Y-60771D01*
X77015Y-60782D01*
X77016Y-60786D01*
X77023Y-60803D01*
X77033Y-60830D01*
X77046Y-60861D01*
X77077Y-60931D01*
X77123Y-60939D01*
X77151Y-60945D01*
X77190Y-60952D01*
X77227Y-60959D01*
X77285Y-60971D01*
X77287Y-61183D01*
X77278Y-61187D01*
X77269Y-61190D01*
X77248Y-61194D01*
X77217Y-61200D01*
X77181Y-61207D01*
X77150Y-61213D01*
X77119Y-61219D01*
X77097Y-61223D01*
X77087Y-61225D01*
X77084Y-61229D01*
X77076Y-61244D01*
X77065Y-61268D01*
X77053Y-61297D01*
X77041Y-61326D01*
X77030Y-61354D01*
X77022Y-61375D01*
X77019Y-61386D01*
X77023Y-61394D01*
X77035Y-61412D01*
X77052Y-61438D01*
X77073Y-61469D01*
X77095Y-61500D01*
X77112Y-61527D01*
X77125Y-61546D01*
X77130Y-61554D01*
X77127Y-61560D01*
X77115Y-61575D01*
X77092Y-61599D01*
X77057Y-61634D01*
X77051Y-61639D01*
X77024Y-61666D01*
X77000Y-61687D01*
X76984Y-61702D01*
X76977Y-61707D01*
X76977Y-61707D01*
G37*
M02*
