M48
INCH,TZ
T1C0.032
T2C0.040
T3C0.126
%
G90
G05
T1
X6.575Y-5.425
X6.575Y-5.525
X6.575Y-6.175
X6.575Y-6.275
X6.675Y-5.85
X6.75Y-5.475
X6.75Y-5.975
X6.75Y-6.225
X6.8Y-6.025
X6.85Y-5.975
X6.95Y-5.475
X6.95Y-6.225
X7.075Y-5.85
X7.1061Y-5.525
X7.1061Y-6.175
X7.175Y-5.4758
X7.175Y-5.5742
X7.175Y-6.1258
X7.175Y-6.2242
X7.2439Y-5.525
X7.2439Y-6.175
X7.525Y-5.4
X7.525Y-5.8
X7.525Y-5.9
X7.525Y-6.3
X7.775Y-5.4
X7.775Y-5.8
X7.775Y-5.9
X7.775Y-6.3
X7.925Y-5.8
X7.925Y-5.9
X7.975Y-5.475
X7.975Y-5.575
X7.975Y-6.125
X7.975Y-6.225
X8.075Y-5.7
X8.075Y-5.8
X8.075Y-5.9
X8.075Y-6.
X8.15Y-5.525
X8.15Y-6.175
X8.35Y-5.525
X8.35Y-6.175
X8.375Y-5.7
X8.375Y-5.8
X8.375Y-5.9
X8.375Y-6.
T2
X6.55Y-5.7
X6.55Y-5.8
X6.55Y-5.9
X6.55Y-6.
X6.7Y-5.7
X6.8Y-5.7
X6.9Y-5.7
X7.65Y-5.4
X7.65Y-5.8
X7.65Y-5.9
X7.65Y-6.3
T3
X7.3Y-5.85
T0
M30
