G04 (created by PCBNEW (2013-07-07 BZR 4022)-stable) date 8/2/2014 11:42:44 PM*
%MOIN*%
G04 Gerber Fmt 3.4, Leading zero omitted, Abs format*
%FSLAX34Y34*%
G01*
G70*
G90*
G04 APERTURE LIST*
%ADD10C,0.00590551*%
%ADD11C,0.006*%
%ADD12C,0.008*%
%ADD13C,0.005*%
G04 APERTURE END LIST*
G54D10*
G54D11*
X73799Y-56185D02*
X73814Y-56171D01*
X73842Y-56128D01*
X73857Y-56100D01*
X73871Y-56057D01*
X73885Y-55985D01*
X73885Y-55928D01*
X73871Y-55857D01*
X73857Y-55814D01*
X73842Y-55785D01*
X73814Y-55742D01*
X73799Y-55728D01*
X73714Y-55871D02*
X73642Y-56071D01*
X73571Y-55871D01*
X73300Y-56071D02*
X73471Y-56071D01*
X73385Y-56071D02*
X73385Y-55771D01*
X73414Y-55814D01*
X73442Y-55842D01*
X73471Y-55857D01*
X73200Y-56185D02*
X73185Y-56171D01*
X73157Y-56128D01*
X73142Y-56100D01*
X73128Y-56057D01*
X73114Y-55985D01*
X73114Y-55928D01*
X73128Y-55857D01*
X73142Y-55814D01*
X73157Y-55785D01*
X73185Y-55742D01*
X73200Y-55728D01*
G54D12*
X78297Y-55411D02*
X78297Y-55011D01*
X77878Y-55373D02*
X77897Y-55392D01*
X77954Y-55411D01*
X77992Y-55411D01*
X78049Y-55392D01*
X78088Y-55354D01*
X78107Y-55316D01*
X78126Y-55240D01*
X78126Y-55183D01*
X78107Y-55107D01*
X78088Y-55069D01*
X78049Y-55030D01*
X77992Y-55011D01*
X77954Y-55011D01*
X77897Y-55030D01*
X77878Y-55050D01*
X77516Y-55411D02*
X77707Y-55411D01*
X77707Y-55011D01*
X77421Y-55011D02*
X77154Y-55011D01*
X77326Y-55411D01*
X76830Y-55011D02*
X76907Y-55011D01*
X76945Y-55030D01*
X76964Y-55050D01*
X77002Y-55107D01*
X77021Y-55183D01*
X77021Y-55335D01*
X77002Y-55373D01*
X76983Y-55392D01*
X76945Y-55411D01*
X76869Y-55411D01*
X76830Y-55392D01*
X76811Y-55373D01*
X76792Y-55335D01*
X76792Y-55240D01*
X76811Y-55202D01*
X76830Y-55183D01*
X76869Y-55164D01*
X76945Y-55164D01*
X76983Y-55183D01*
X77002Y-55202D01*
X77021Y-55240D01*
X76450Y-55011D02*
X76526Y-55011D01*
X76564Y-55030D01*
X76583Y-55050D01*
X76621Y-55107D01*
X76640Y-55183D01*
X76640Y-55335D01*
X76621Y-55373D01*
X76602Y-55392D01*
X76564Y-55411D01*
X76488Y-55411D01*
X76450Y-55392D01*
X76430Y-55373D01*
X76411Y-55335D01*
X76411Y-55240D01*
X76430Y-55202D01*
X76450Y-55183D01*
X76488Y-55164D01*
X76564Y-55164D01*
X76602Y-55183D01*
X76621Y-55202D01*
X76640Y-55240D01*
X76164Y-55011D02*
X76126Y-55011D01*
X76088Y-55030D01*
X76069Y-55050D01*
X76050Y-55088D01*
X76030Y-55164D01*
X76030Y-55259D01*
X76050Y-55335D01*
X76069Y-55373D01*
X76088Y-55392D01*
X76126Y-55411D01*
X76164Y-55411D01*
X76202Y-55392D01*
X76221Y-55373D01*
X76240Y-55335D01*
X76259Y-55259D01*
X76259Y-55164D01*
X76240Y-55088D01*
X76221Y-55050D01*
X76202Y-55030D01*
X76164Y-55011D01*
X75859Y-55259D02*
X75554Y-55259D01*
X75364Y-55411D02*
X75364Y-55011D01*
X75364Y-55164D02*
X75326Y-55145D01*
X75250Y-55145D01*
X75211Y-55164D01*
X75192Y-55183D01*
X75173Y-55221D01*
X75173Y-55335D01*
X75192Y-55373D01*
X75211Y-55392D01*
X75250Y-55411D01*
X75326Y-55411D01*
X75364Y-55392D01*
X74830Y-55411D02*
X74830Y-55202D01*
X74850Y-55164D01*
X74888Y-55145D01*
X74964Y-55145D01*
X75002Y-55164D01*
X74830Y-55392D02*
X74869Y-55411D01*
X74964Y-55411D01*
X75002Y-55392D01*
X75021Y-55354D01*
X75021Y-55316D01*
X75002Y-55278D01*
X74964Y-55259D01*
X74869Y-55259D01*
X74830Y-55240D01*
X74659Y-55392D02*
X74621Y-55411D01*
X74545Y-55411D01*
X74507Y-55392D01*
X74488Y-55354D01*
X74488Y-55335D01*
X74507Y-55297D01*
X74545Y-55278D01*
X74602Y-55278D01*
X74640Y-55259D01*
X74659Y-55221D01*
X74659Y-55202D01*
X74640Y-55164D01*
X74602Y-55145D01*
X74545Y-55145D01*
X74507Y-55164D01*
X74164Y-55392D02*
X74202Y-55411D01*
X74278Y-55411D01*
X74316Y-55392D01*
X74335Y-55354D01*
X74335Y-55202D01*
X74316Y-55164D01*
X74278Y-55145D01*
X74202Y-55145D01*
X74164Y-55164D01*
X74145Y-55202D01*
X74145Y-55240D01*
X74335Y-55278D01*
X73802Y-55411D02*
X73802Y-55011D01*
X73802Y-55392D02*
X73840Y-55411D01*
X73916Y-55411D01*
X73954Y-55392D01*
X73973Y-55373D01*
X73992Y-55335D01*
X73992Y-55221D01*
X73973Y-55183D01*
X73954Y-55164D01*
X73916Y-55145D01*
X73840Y-55145D01*
X73802Y-55164D01*
X77964Y-56051D02*
X77964Y-55651D01*
X77735Y-56051D01*
X77735Y-55651D01*
X77392Y-56032D02*
X77430Y-56051D01*
X77507Y-56051D01*
X77545Y-56032D01*
X77564Y-55994D01*
X77564Y-55842D01*
X77545Y-55804D01*
X77507Y-55785D01*
X77430Y-55785D01*
X77392Y-55804D01*
X77373Y-55842D01*
X77373Y-55880D01*
X77564Y-55918D01*
X77030Y-55785D02*
X77030Y-56109D01*
X77050Y-56147D01*
X77069Y-56166D01*
X77107Y-56185D01*
X77164Y-56185D01*
X77202Y-56166D01*
X77030Y-56032D02*
X77069Y-56051D01*
X77145Y-56051D01*
X77183Y-56032D01*
X77202Y-56013D01*
X77221Y-55975D01*
X77221Y-55861D01*
X77202Y-55823D01*
X77183Y-55804D01*
X77145Y-55785D01*
X77069Y-55785D01*
X77030Y-55804D01*
X76669Y-56051D02*
X76669Y-55842D01*
X76688Y-55804D01*
X76726Y-55785D01*
X76802Y-55785D01*
X76840Y-55804D01*
X76669Y-56032D02*
X76707Y-56051D01*
X76802Y-56051D01*
X76840Y-56032D01*
X76859Y-55994D01*
X76859Y-55956D01*
X76840Y-55918D01*
X76802Y-55899D01*
X76707Y-55899D01*
X76669Y-55880D01*
X76535Y-55785D02*
X76383Y-55785D01*
X76478Y-55651D02*
X76478Y-55994D01*
X76459Y-56032D01*
X76421Y-56051D01*
X76383Y-56051D01*
X76250Y-56051D02*
X76250Y-55785D01*
X76250Y-55651D02*
X76269Y-55670D01*
X76250Y-55690D01*
X76230Y-55670D01*
X76250Y-55651D01*
X76250Y-55690D01*
X76097Y-55785D02*
X76002Y-56051D01*
X75907Y-55785D01*
X75602Y-56032D02*
X75640Y-56051D01*
X75716Y-56051D01*
X75754Y-56032D01*
X75773Y-55994D01*
X75773Y-55842D01*
X75754Y-55804D01*
X75716Y-55785D01*
X75640Y-55785D01*
X75602Y-55804D01*
X75583Y-55842D01*
X75583Y-55880D01*
X75773Y-55918D01*
X74878Y-56051D02*
X75011Y-55861D01*
X75107Y-56051D02*
X75107Y-55651D01*
X74954Y-55651D01*
X74916Y-55670D01*
X74897Y-55690D01*
X74878Y-55728D01*
X74878Y-55785D01*
X74897Y-55823D01*
X74916Y-55842D01*
X74954Y-55861D01*
X75107Y-55861D01*
X74535Y-56051D02*
X74535Y-55842D01*
X74554Y-55804D01*
X74592Y-55785D01*
X74669Y-55785D01*
X74707Y-55804D01*
X74535Y-56032D02*
X74573Y-56051D01*
X74669Y-56051D01*
X74707Y-56032D01*
X74726Y-55994D01*
X74726Y-55956D01*
X74707Y-55918D01*
X74669Y-55899D01*
X74573Y-55899D01*
X74535Y-55880D01*
X74345Y-56051D02*
X74345Y-55785D01*
X74345Y-55651D02*
X74364Y-55670D01*
X74345Y-55690D01*
X74326Y-55670D01*
X74345Y-55651D01*
X74345Y-55690D01*
X74097Y-56051D02*
X74135Y-56032D01*
X74154Y-55994D01*
X74154Y-55651D01*
G54D13*
X79276Y-56634D02*
X79276Y-56836D01*
X79288Y-56860D01*
X79300Y-56872D01*
X79323Y-56884D01*
X79359Y-56884D01*
X79383Y-56872D01*
X79276Y-56789D02*
X79300Y-56801D01*
X79347Y-56801D01*
X79371Y-56789D01*
X79383Y-56777D01*
X79395Y-56753D01*
X79395Y-56682D01*
X79383Y-56658D01*
X79371Y-56646D01*
X79347Y-56634D01*
X79300Y-56634D01*
X79276Y-56646D01*
X79157Y-56801D02*
X79157Y-56634D01*
X79157Y-56551D02*
X79169Y-56563D01*
X79157Y-56575D01*
X79145Y-56563D01*
X79157Y-56551D01*
X79157Y-56575D01*
X79073Y-56634D02*
X78978Y-56634D01*
X79038Y-56551D02*
X79038Y-56765D01*
X79026Y-56789D01*
X79002Y-56801D01*
X78978Y-56801D01*
X78895Y-56801D02*
X78895Y-56551D01*
X78788Y-56801D02*
X78788Y-56670D01*
X78800Y-56646D01*
X78823Y-56634D01*
X78859Y-56634D01*
X78883Y-56646D01*
X78895Y-56658D01*
X78561Y-56634D02*
X78561Y-56801D01*
X78669Y-56634D02*
X78669Y-56765D01*
X78657Y-56789D01*
X78633Y-56801D01*
X78597Y-56801D01*
X78573Y-56789D01*
X78561Y-56777D01*
X78442Y-56801D02*
X78442Y-56551D01*
X78442Y-56646D02*
X78419Y-56634D01*
X78371Y-56634D01*
X78347Y-56646D01*
X78335Y-56658D01*
X78323Y-56682D01*
X78323Y-56753D01*
X78335Y-56777D01*
X78347Y-56789D01*
X78371Y-56801D01*
X78419Y-56801D01*
X78442Y-56789D01*
X78216Y-56777D02*
X78204Y-56789D01*
X78216Y-56801D01*
X78228Y-56789D01*
X78216Y-56777D01*
X78216Y-56801D01*
X77990Y-56789D02*
X78014Y-56801D01*
X78061Y-56801D01*
X78085Y-56789D01*
X78097Y-56777D01*
X78109Y-56753D01*
X78109Y-56682D01*
X78097Y-56658D01*
X78085Y-56646D01*
X78061Y-56634D01*
X78014Y-56634D01*
X77990Y-56646D01*
X77847Y-56801D02*
X77871Y-56789D01*
X77883Y-56777D01*
X77895Y-56753D01*
X77895Y-56682D01*
X77883Y-56658D01*
X77871Y-56646D01*
X77847Y-56634D01*
X77811Y-56634D01*
X77788Y-56646D01*
X77776Y-56658D01*
X77764Y-56682D01*
X77764Y-56753D01*
X77776Y-56777D01*
X77788Y-56789D01*
X77811Y-56801D01*
X77847Y-56801D01*
X77657Y-56801D02*
X77657Y-56634D01*
X77657Y-56658D02*
X77645Y-56646D01*
X77621Y-56634D01*
X77585Y-56634D01*
X77561Y-56646D01*
X77550Y-56670D01*
X77550Y-56801D01*
X77550Y-56670D02*
X77538Y-56646D01*
X77514Y-56634D01*
X77478Y-56634D01*
X77454Y-56646D01*
X77442Y-56670D01*
X77442Y-56801D01*
X77145Y-56539D02*
X77359Y-56860D01*
X77061Y-56634D02*
X77061Y-56884D01*
X77061Y-56646D02*
X77038Y-56634D01*
X76990Y-56634D01*
X76966Y-56646D01*
X76954Y-56658D01*
X76942Y-56682D01*
X76942Y-56753D01*
X76954Y-56777D01*
X76966Y-56789D01*
X76990Y-56801D01*
X77038Y-56801D01*
X77061Y-56789D01*
X76740Y-56789D02*
X76764Y-56801D01*
X76811Y-56801D01*
X76835Y-56789D01*
X76847Y-56765D01*
X76847Y-56670D01*
X76835Y-56646D01*
X76811Y-56634D01*
X76764Y-56634D01*
X76740Y-56646D01*
X76728Y-56670D01*
X76728Y-56694D01*
X76847Y-56717D01*
X76621Y-56634D02*
X76621Y-56884D01*
X76621Y-56646D02*
X76597Y-56634D01*
X76550Y-56634D01*
X76526Y-56646D01*
X76514Y-56658D01*
X76502Y-56682D01*
X76502Y-56753D01*
X76514Y-56777D01*
X76526Y-56789D01*
X76550Y-56801D01*
X76597Y-56801D01*
X76621Y-56789D01*
X76288Y-56801D02*
X76288Y-56670D01*
X76300Y-56646D01*
X76323Y-56634D01*
X76371Y-56634D01*
X76395Y-56646D01*
X76288Y-56789D02*
X76311Y-56801D01*
X76371Y-56801D01*
X76395Y-56789D01*
X76407Y-56765D01*
X76407Y-56741D01*
X76395Y-56717D01*
X76371Y-56705D01*
X76311Y-56705D01*
X76288Y-56694D01*
X76180Y-56789D02*
X76157Y-56801D01*
X76109Y-56801D01*
X76085Y-56789D01*
X76073Y-56765D01*
X76073Y-56753D01*
X76085Y-56729D01*
X76109Y-56717D01*
X76145Y-56717D01*
X76169Y-56705D01*
X76180Y-56682D01*
X76180Y-56670D01*
X76169Y-56646D01*
X76145Y-56634D01*
X76109Y-56634D01*
X76085Y-56646D01*
X75930Y-56801D02*
X75954Y-56789D01*
X75966Y-56765D01*
X75966Y-56551D01*
X75728Y-56801D02*
X75728Y-56670D01*
X75740Y-56646D01*
X75764Y-56634D01*
X75811Y-56634D01*
X75835Y-56646D01*
X75728Y-56789D02*
X75752Y-56801D01*
X75811Y-56801D01*
X75835Y-56789D01*
X75847Y-56765D01*
X75847Y-56741D01*
X75835Y-56717D01*
X75811Y-56705D01*
X75752Y-56705D01*
X75728Y-56694D01*
X75609Y-56801D02*
X75609Y-56551D01*
X75609Y-56646D02*
X75585Y-56634D01*
X75538Y-56634D01*
X75514Y-56646D01*
X75502Y-56658D01*
X75490Y-56682D01*
X75490Y-56753D01*
X75502Y-56777D01*
X75514Y-56789D01*
X75538Y-56801D01*
X75585Y-56801D01*
X75609Y-56789D01*
X75395Y-56789D02*
X75371Y-56801D01*
X75323Y-56801D01*
X75299Y-56789D01*
X75288Y-56765D01*
X75288Y-56753D01*
X75299Y-56729D01*
X75323Y-56717D01*
X75359Y-56717D01*
X75383Y-56705D01*
X75395Y-56682D01*
X75395Y-56670D01*
X75383Y-56646D01*
X75359Y-56634D01*
X75323Y-56634D01*
X75299Y-56646D01*
X75002Y-56539D02*
X75216Y-56860D01*
X74919Y-56801D02*
X74919Y-56551D01*
X74776Y-56801D01*
X74776Y-56551D01*
X74561Y-56789D02*
X74585Y-56801D01*
X74633Y-56801D01*
X74657Y-56789D01*
X74669Y-56765D01*
X74669Y-56670D01*
X74657Y-56646D01*
X74633Y-56634D01*
X74585Y-56634D01*
X74561Y-56646D01*
X74549Y-56670D01*
X74549Y-56694D01*
X74669Y-56717D01*
X74335Y-56634D02*
X74335Y-56836D01*
X74347Y-56860D01*
X74359Y-56872D01*
X74383Y-56884D01*
X74419Y-56884D01*
X74442Y-56872D01*
X74335Y-56789D02*
X74359Y-56801D01*
X74407Y-56801D01*
X74430Y-56789D01*
X74442Y-56777D01*
X74454Y-56753D01*
X74454Y-56682D01*
X74442Y-56658D01*
X74430Y-56646D01*
X74407Y-56634D01*
X74359Y-56634D01*
X74335Y-56646D01*
X74109Y-56801D02*
X74109Y-56670D01*
X74121Y-56646D01*
X74145Y-56634D01*
X74192Y-56634D01*
X74216Y-56646D01*
X74109Y-56789D02*
X74133Y-56801D01*
X74192Y-56801D01*
X74216Y-56789D01*
X74228Y-56765D01*
X74228Y-56741D01*
X74216Y-56717D01*
X74192Y-56705D01*
X74133Y-56705D01*
X74109Y-56694D01*
X74026Y-56634D02*
X73930Y-56634D01*
X73990Y-56551D02*
X73990Y-56765D01*
X73978Y-56789D01*
X73954Y-56801D01*
X73930Y-56801D01*
X73847Y-56801D02*
X73847Y-56634D01*
X73847Y-56551D02*
X73859Y-56563D01*
X73847Y-56575D01*
X73835Y-56563D01*
X73847Y-56551D01*
X73847Y-56575D01*
X73752Y-56634D02*
X73692Y-56801D01*
X73633Y-56634D01*
X73442Y-56789D02*
X73466Y-56801D01*
X73514Y-56801D01*
X73538Y-56789D01*
X73549Y-56765D01*
X73549Y-56670D01*
X73538Y-56646D01*
X73514Y-56634D01*
X73466Y-56634D01*
X73442Y-56646D01*
X73430Y-56670D01*
X73430Y-56694D01*
X73549Y-56717D01*
X73180Y-56801D02*
X73264Y-56682D01*
X73323Y-56801D02*
X73323Y-56551D01*
X73228Y-56551D01*
X73204Y-56563D01*
X73192Y-56575D01*
X73180Y-56598D01*
X73180Y-56634D01*
X73192Y-56658D01*
X73204Y-56670D01*
X73228Y-56682D01*
X73323Y-56682D01*
X72966Y-56801D02*
X72966Y-56670D01*
X72978Y-56646D01*
X73002Y-56634D01*
X73049Y-56634D01*
X73073Y-56646D01*
X72966Y-56789D02*
X72990Y-56801D01*
X73049Y-56801D01*
X73073Y-56789D01*
X73085Y-56765D01*
X73085Y-56741D01*
X73073Y-56717D01*
X73049Y-56705D01*
X72990Y-56705D01*
X72966Y-56694D01*
X72847Y-56801D02*
X72847Y-56634D01*
X72847Y-56551D02*
X72859Y-56563D01*
X72847Y-56575D01*
X72835Y-56563D01*
X72847Y-56551D01*
X72847Y-56575D01*
X72692Y-56801D02*
X72716Y-56789D01*
X72728Y-56765D01*
X72728Y-56551D01*
M02*
