G04 (created by PCBNEW (2013-07-07 BZR 4022)-stable) date 8/2/2014 11:46:22 PM*
%MOIN*%
G04 Gerber Fmt 3.4, Leading zero omitted, Abs format*
%FSLAX34Y34*%
G01*
G70*
G90*
G04 APERTURE LIST*
%ADD10C,0.00590551*%
%ADD11O,0.059X0.059*%
%ADD12R,0.069X0.138*%
%ADD13O,0.069X0.138*%
%ADD14R,0.06X0.06*%
%ADD15C,0.06*%
%ADD16C,0.059*%
%ADD17C,0.069*%
%ADD18R,0.059X0.059*%
%ADD19C,0.23622*%
%ADD20C,0.01*%
G04 APERTURE END LIST*
G54D10*
G54D11*
X68500Y-59750D03*
X68000Y-60250D03*
X67500Y-59750D03*
G54D12*
X67000Y-57000D03*
G54D13*
X68000Y-57000D03*
X69000Y-57000D03*
G54D11*
X70750Y-58500D03*
X66750Y-58500D03*
X77750Y-58000D03*
X77750Y-54000D03*
X75250Y-58000D03*
X75250Y-54000D03*
X77750Y-63000D03*
X77750Y-59000D03*
X75250Y-63000D03*
X75250Y-59000D03*
G54D14*
X65500Y-57000D03*
G54D15*
X65500Y-58000D03*
X65500Y-59000D03*
X65500Y-60000D03*
G54D16*
X71750Y-61257D03*
X72438Y-61750D03*
X71061Y-61750D03*
X71750Y-62242D03*
X71750Y-55742D03*
X71061Y-55250D03*
X72438Y-55250D03*
X71750Y-54757D03*
G54D17*
X76500Y-59000D03*
X76500Y-63000D03*
X76500Y-54000D03*
X76500Y-58000D03*
G54D18*
X65750Y-62750D03*
G54D11*
X65750Y-61750D03*
G54D18*
X79750Y-61250D03*
G54D11*
X79750Y-62250D03*
G54D18*
X79750Y-54750D03*
G54D11*
X79750Y-55750D03*
G54D18*
X79250Y-58000D03*
G54D11*
X79250Y-59000D03*
G54D18*
X65750Y-55250D03*
G54D11*
X65750Y-54250D03*
G54D18*
X80750Y-57000D03*
G54D11*
X80750Y-58000D03*
X80750Y-59000D03*
X80750Y-60000D03*
X83750Y-60000D03*
X83750Y-59000D03*
X83750Y-57000D03*
X83750Y-58000D03*
G54D16*
X67500Y-62250D03*
X69500Y-62250D03*
X83500Y-61750D03*
X81500Y-61750D03*
X69500Y-54750D03*
X67500Y-54750D03*
X81500Y-55250D03*
X83500Y-55250D03*
G54D19*
X73000Y-58500D03*
G54D10*
G36*
X83980Y-63230D02*
X83811Y-63230D01*
X83811Y-62132D01*
X83500Y-61820D01*
X83429Y-61891D01*
X83429Y-61750D01*
X83117Y-61438D01*
X83022Y-61465D01*
X82950Y-61669D01*
X82961Y-61885D01*
X83022Y-62034D01*
X83117Y-62061D01*
X83429Y-61750D01*
X83429Y-61891D01*
X83188Y-62132D01*
X83215Y-62227D01*
X83419Y-62299D01*
X83635Y-62288D01*
X83784Y-62227D01*
X83811Y-62132D01*
X83811Y-63230D01*
X82045Y-63230D01*
X82045Y-61642D01*
X82045Y-55142D01*
X81962Y-54941D01*
X81809Y-54788D01*
X81608Y-54705D01*
X81392Y-54704D01*
X81191Y-54787D01*
X81038Y-54940D01*
X80955Y-55141D01*
X80954Y-55357D01*
X81037Y-55558D01*
X81190Y-55711D01*
X81391Y-55794D01*
X81607Y-55795D01*
X81808Y-55712D01*
X81961Y-55559D01*
X82044Y-55358D01*
X82045Y-55142D01*
X82045Y-61642D01*
X81962Y-61441D01*
X81809Y-61288D01*
X81608Y-61205D01*
X81392Y-61204D01*
X81295Y-61244D01*
X81295Y-57245D01*
X81295Y-56655D01*
X81257Y-56563D01*
X81186Y-56493D01*
X81094Y-56455D01*
X80995Y-56454D01*
X80405Y-56454D01*
X80313Y-56492D01*
X80295Y-56511D01*
X80295Y-54995D01*
X80295Y-54405D01*
X80257Y-54313D01*
X80186Y-54243D01*
X80094Y-54205D01*
X79995Y-54204D01*
X79405Y-54204D01*
X79313Y-54242D01*
X79243Y-54313D01*
X79205Y-54405D01*
X79204Y-54504D01*
X79204Y-55094D01*
X79242Y-55186D01*
X79313Y-55256D01*
X79405Y-55294D01*
X79456Y-55295D01*
X79313Y-55423D01*
X79221Y-55615D01*
X79269Y-55700D01*
X79700Y-55700D01*
X79700Y-55692D01*
X79800Y-55692D01*
X79800Y-55700D01*
X80230Y-55700D01*
X80278Y-55615D01*
X80186Y-55423D01*
X80043Y-55295D01*
X80094Y-55295D01*
X80186Y-55257D01*
X80256Y-55186D01*
X80294Y-55094D01*
X80295Y-54995D01*
X80295Y-56511D01*
X80278Y-56528D01*
X80278Y-55884D01*
X80230Y-55800D01*
X79800Y-55800D01*
X79800Y-56229D01*
X79884Y-56278D01*
X80028Y-56218D01*
X80186Y-56076D01*
X80278Y-55884D01*
X80278Y-56528D01*
X80243Y-56563D01*
X80205Y-56655D01*
X80204Y-56754D01*
X80204Y-57344D01*
X80242Y-57436D01*
X80313Y-57506D01*
X80405Y-57544D01*
X80452Y-57544D01*
X80364Y-57603D01*
X80246Y-57780D01*
X80205Y-57989D01*
X80205Y-58010D01*
X80246Y-58219D01*
X80364Y-58396D01*
X80530Y-58507D01*
X80471Y-58531D01*
X80313Y-58673D01*
X80221Y-58865D01*
X80269Y-58950D01*
X80700Y-58950D01*
X80700Y-58942D01*
X80800Y-58942D01*
X80800Y-58950D01*
X81230Y-58950D01*
X81278Y-58865D01*
X81186Y-58673D01*
X81028Y-58531D01*
X80969Y-58507D01*
X81135Y-58396D01*
X81253Y-58219D01*
X81295Y-58010D01*
X81295Y-57989D01*
X81253Y-57780D01*
X81135Y-57603D01*
X81047Y-57545D01*
X81094Y-57545D01*
X81186Y-57507D01*
X81256Y-57436D01*
X81294Y-57344D01*
X81295Y-57245D01*
X81295Y-61244D01*
X81295Y-61245D01*
X81295Y-60010D01*
X81295Y-59989D01*
X81253Y-59780D01*
X81135Y-59603D01*
X80969Y-59492D01*
X81028Y-59468D01*
X81186Y-59326D01*
X81278Y-59134D01*
X81230Y-59050D01*
X80800Y-59050D01*
X80800Y-59057D01*
X80700Y-59057D01*
X80700Y-59050D01*
X80269Y-59050D01*
X80221Y-59134D01*
X80313Y-59326D01*
X80471Y-59468D01*
X80530Y-59492D01*
X80364Y-59603D01*
X80246Y-59780D01*
X80205Y-59989D01*
X80205Y-60010D01*
X80246Y-60219D01*
X80364Y-60396D01*
X80541Y-60514D01*
X80750Y-60555D01*
X80958Y-60514D01*
X81135Y-60396D01*
X81253Y-60219D01*
X81295Y-60010D01*
X81295Y-61245D01*
X81191Y-61287D01*
X81038Y-61440D01*
X80955Y-61641D01*
X80954Y-61857D01*
X81037Y-62058D01*
X81190Y-62211D01*
X81391Y-62294D01*
X81607Y-62295D01*
X81808Y-62212D01*
X81961Y-62059D01*
X82044Y-61858D01*
X82045Y-61642D01*
X82045Y-63230D01*
X80295Y-63230D01*
X80295Y-61594D01*
X80295Y-60905D01*
X80257Y-60813D01*
X80186Y-60743D01*
X80094Y-60705D01*
X79995Y-60704D01*
X79862Y-60705D01*
X79800Y-60767D01*
X79800Y-61200D01*
X80232Y-61200D01*
X80295Y-61137D01*
X80295Y-60905D01*
X80295Y-61594D01*
X80295Y-61362D01*
X80232Y-61300D01*
X79800Y-61300D01*
X79800Y-61307D01*
X79795Y-61307D01*
X79795Y-58245D01*
X79795Y-57655D01*
X79757Y-57563D01*
X79700Y-57506D01*
X79700Y-56229D01*
X79700Y-55800D01*
X79269Y-55800D01*
X79221Y-55884D01*
X79313Y-56076D01*
X79471Y-56218D01*
X79615Y-56278D01*
X79700Y-56229D01*
X79700Y-57506D01*
X79686Y-57493D01*
X79594Y-57455D01*
X79495Y-57454D01*
X78905Y-57454D01*
X78813Y-57492D01*
X78743Y-57563D01*
X78705Y-57655D01*
X78704Y-57754D01*
X78704Y-58344D01*
X78742Y-58436D01*
X78813Y-58506D01*
X78905Y-58544D01*
X78952Y-58544D01*
X78864Y-58603D01*
X78746Y-58780D01*
X78705Y-58989D01*
X78705Y-59010D01*
X78746Y-59219D01*
X78864Y-59396D01*
X79041Y-59514D01*
X79250Y-59555D01*
X79458Y-59514D01*
X79635Y-59396D01*
X79753Y-59219D01*
X79795Y-59010D01*
X79795Y-58989D01*
X79753Y-58780D01*
X79635Y-58603D01*
X79547Y-58545D01*
X79594Y-58545D01*
X79686Y-58507D01*
X79756Y-58436D01*
X79794Y-58344D01*
X79795Y-58245D01*
X79795Y-61307D01*
X79700Y-61307D01*
X79700Y-61300D01*
X79700Y-61200D01*
X79700Y-60767D01*
X79637Y-60705D01*
X79504Y-60704D01*
X79405Y-60705D01*
X79313Y-60743D01*
X79242Y-60813D01*
X79204Y-60905D01*
X79205Y-61137D01*
X79267Y-61200D01*
X79700Y-61200D01*
X79700Y-61300D01*
X79267Y-61300D01*
X79205Y-61362D01*
X79204Y-61594D01*
X79242Y-61686D01*
X79313Y-61756D01*
X79405Y-61794D01*
X79452Y-61794D01*
X79364Y-61853D01*
X79246Y-62030D01*
X79205Y-62239D01*
X79205Y-62260D01*
X79246Y-62469D01*
X79364Y-62646D01*
X79541Y-62764D01*
X79750Y-62805D01*
X79958Y-62764D01*
X80135Y-62646D01*
X80253Y-62469D01*
X80295Y-62260D01*
X80295Y-62239D01*
X80253Y-62030D01*
X80135Y-61853D01*
X80047Y-61794D01*
X80094Y-61794D01*
X80186Y-61756D01*
X80257Y-61686D01*
X80295Y-61594D01*
X80295Y-63230D01*
X78246Y-63230D01*
X78253Y-63219D01*
X78295Y-63010D01*
X78295Y-62989D01*
X78295Y-59010D01*
X78295Y-58989D01*
X78253Y-58780D01*
X78135Y-58603D01*
X77979Y-58500D01*
X78135Y-58396D01*
X78253Y-58219D01*
X78295Y-58010D01*
X78295Y-57989D01*
X78253Y-57780D01*
X78135Y-57603D01*
X77958Y-57485D01*
X77750Y-57444D01*
X77541Y-57485D01*
X77364Y-57603D01*
X77246Y-57780D01*
X77205Y-57989D01*
X77205Y-58010D01*
X77246Y-58219D01*
X77364Y-58396D01*
X77520Y-58500D01*
X77364Y-58603D01*
X77246Y-58780D01*
X77205Y-58989D01*
X77205Y-59010D01*
X77246Y-59219D01*
X77364Y-59396D01*
X77541Y-59514D01*
X77750Y-59555D01*
X77958Y-59514D01*
X78135Y-59396D01*
X78253Y-59219D01*
X78295Y-59010D01*
X78295Y-62989D01*
X78253Y-62780D01*
X78135Y-62603D01*
X77958Y-62485D01*
X77750Y-62444D01*
X77541Y-62485D01*
X77364Y-62603D01*
X77246Y-62780D01*
X77205Y-62989D01*
X77205Y-63010D01*
X77246Y-63219D01*
X77253Y-63230D01*
X77048Y-63230D01*
X77094Y-63118D01*
X77095Y-62882D01*
X77095Y-58882D01*
X77004Y-58663D01*
X76841Y-58499D01*
X77004Y-58337D01*
X77094Y-58118D01*
X77095Y-57882D01*
X77004Y-57663D01*
X76837Y-57495D01*
X76618Y-57405D01*
X76382Y-57404D01*
X76163Y-57495D01*
X75995Y-57662D01*
X75905Y-57881D01*
X75904Y-58117D01*
X75995Y-58336D01*
X76158Y-58500D01*
X75995Y-58662D01*
X75905Y-58881D01*
X75904Y-59117D01*
X75995Y-59336D01*
X76162Y-59504D01*
X76381Y-59594D01*
X76617Y-59595D01*
X76836Y-59504D01*
X77004Y-59337D01*
X77094Y-59118D01*
X77095Y-58882D01*
X77095Y-62882D01*
X77004Y-62663D01*
X76837Y-62495D01*
X76618Y-62405D01*
X76382Y-62404D01*
X76163Y-62495D01*
X75995Y-62662D01*
X75905Y-62881D01*
X75904Y-63117D01*
X75951Y-63230D01*
X75746Y-63230D01*
X75753Y-63219D01*
X75795Y-63010D01*
X75795Y-62989D01*
X75795Y-59010D01*
X75795Y-58989D01*
X75753Y-58780D01*
X75635Y-58603D01*
X75479Y-58500D01*
X75635Y-58396D01*
X75753Y-58219D01*
X75795Y-58010D01*
X75795Y-57989D01*
X75753Y-57780D01*
X75635Y-57603D01*
X75458Y-57485D01*
X75250Y-57444D01*
X75041Y-57485D01*
X74864Y-57603D01*
X74746Y-57780D01*
X74705Y-57989D01*
X74705Y-58010D01*
X74746Y-58219D01*
X74864Y-58396D01*
X75020Y-58500D01*
X74864Y-58603D01*
X74746Y-58780D01*
X74705Y-58989D01*
X74705Y-59010D01*
X74746Y-59219D01*
X74864Y-59396D01*
X75041Y-59514D01*
X75250Y-59555D01*
X75458Y-59514D01*
X75635Y-59396D01*
X75753Y-59219D01*
X75795Y-59010D01*
X75795Y-62989D01*
X75753Y-62780D01*
X75635Y-62603D01*
X75458Y-62485D01*
X75250Y-62444D01*
X75041Y-62485D01*
X74864Y-62603D01*
X74746Y-62780D01*
X74705Y-62989D01*
X74705Y-63010D01*
X74746Y-63219D01*
X74753Y-63230D01*
X74431Y-63230D01*
X74431Y-58216D01*
X74213Y-57690D01*
X73811Y-57287D01*
X73285Y-57069D01*
X72988Y-57068D01*
X72988Y-55330D01*
X72977Y-55114D01*
X72916Y-54965D01*
X72821Y-54938D01*
X72509Y-55250D01*
X72821Y-55561D01*
X72916Y-55534D01*
X72988Y-55330D01*
X72988Y-57068D01*
X72750Y-57068D01*
X72750Y-55632D01*
X72438Y-55320D01*
X72433Y-55326D01*
X72362Y-55255D01*
X72368Y-55250D01*
X72362Y-55244D01*
X72433Y-55173D01*
X72438Y-55179D01*
X72750Y-54867D01*
X72723Y-54772D01*
X72519Y-54700D01*
X72303Y-54711D01*
X72295Y-54714D01*
X72295Y-54649D01*
X72212Y-54449D01*
X72059Y-54296D01*
X71858Y-54212D01*
X71642Y-54212D01*
X71441Y-54295D01*
X71288Y-54448D01*
X71205Y-54648D01*
X71205Y-54719D01*
X71169Y-54705D01*
X70953Y-54704D01*
X70752Y-54787D01*
X70599Y-54940D01*
X70516Y-55141D01*
X70515Y-55357D01*
X70598Y-55558D01*
X70751Y-55711D01*
X70952Y-55794D01*
X71168Y-55795D01*
X71206Y-55779D01*
X71211Y-55878D01*
X71272Y-56026D01*
X71367Y-56053D01*
X71679Y-55742D01*
X71673Y-55736D01*
X71744Y-55665D01*
X71750Y-55671D01*
X71755Y-55665D01*
X71826Y-55736D01*
X71820Y-55742D01*
X72132Y-56053D01*
X72227Y-56026D01*
X72299Y-55822D01*
X72297Y-55778D01*
X72358Y-55799D01*
X72574Y-55788D01*
X72723Y-55727D01*
X72750Y-55632D01*
X72750Y-57068D01*
X72716Y-57068D01*
X72190Y-57286D01*
X72061Y-57414D01*
X72061Y-56124D01*
X71750Y-55812D01*
X71438Y-56124D01*
X71465Y-56219D01*
X71669Y-56291D01*
X71885Y-56280D01*
X72034Y-56219D01*
X72061Y-56124D01*
X72061Y-57414D01*
X71787Y-57688D01*
X71569Y-58214D01*
X71568Y-58783D01*
X71786Y-59309D01*
X72188Y-59712D01*
X72714Y-59930D01*
X73283Y-59931D01*
X73809Y-59713D01*
X74212Y-59311D01*
X74430Y-58785D01*
X74431Y-58216D01*
X74431Y-63230D01*
X72988Y-63230D01*
X72988Y-61830D01*
X72977Y-61614D01*
X72916Y-61465D01*
X72821Y-61438D01*
X72509Y-61750D01*
X72821Y-62061D01*
X72916Y-62034D01*
X72988Y-61830D01*
X72988Y-63230D01*
X72750Y-63230D01*
X72750Y-62132D01*
X72438Y-61820D01*
X72433Y-61826D01*
X72362Y-61755D01*
X72368Y-61750D01*
X72362Y-61744D01*
X72433Y-61673D01*
X72438Y-61679D01*
X72750Y-61367D01*
X72723Y-61272D01*
X72519Y-61200D01*
X72303Y-61211D01*
X72295Y-61214D01*
X72295Y-61149D01*
X72212Y-60949D01*
X72059Y-60796D01*
X71858Y-60712D01*
X71642Y-60712D01*
X71441Y-60795D01*
X71305Y-60931D01*
X71305Y-58500D01*
X71264Y-58291D01*
X71146Y-58114D01*
X70969Y-57996D01*
X70760Y-57955D01*
X70739Y-57955D01*
X70530Y-57996D01*
X70353Y-58114D01*
X70235Y-58291D01*
X70194Y-58500D01*
X70235Y-58708D01*
X70353Y-58885D01*
X70530Y-59003D01*
X70739Y-59045D01*
X70760Y-59045D01*
X70969Y-59003D01*
X71146Y-58885D01*
X71264Y-58708D01*
X71305Y-58500D01*
X71305Y-60931D01*
X71288Y-60948D01*
X71205Y-61148D01*
X71205Y-61219D01*
X71169Y-61205D01*
X70953Y-61204D01*
X70752Y-61287D01*
X70599Y-61440D01*
X70516Y-61641D01*
X70515Y-61857D01*
X70598Y-62058D01*
X70751Y-62211D01*
X70952Y-62294D01*
X71168Y-62295D01*
X71206Y-62279D01*
X71211Y-62378D01*
X71272Y-62526D01*
X71367Y-62553D01*
X71679Y-62242D01*
X71673Y-62236D01*
X71744Y-62165D01*
X71750Y-62171D01*
X71755Y-62165D01*
X71826Y-62236D01*
X71820Y-62242D01*
X72132Y-62553D01*
X72227Y-62526D01*
X72299Y-62322D01*
X72297Y-62278D01*
X72358Y-62299D01*
X72574Y-62288D01*
X72723Y-62227D01*
X72750Y-62132D01*
X72750Y-63230D01*
X72061Y-63230D01*
X72061Y-62624D01*
X71750Y-62312D01*
X71438Y-62624D01*
X71465Y-62719D01*
X71669Y-62791D01*
X71885Y-62780D01*
X72034Y-62719D01*
X72061Y-62624D01*
X72061Y-63230D01*
X70045Y-63230D01*
X70045Y-62142D01*
X70045Y-54642D01*
X69962Y-54441D01*
X69809Y-54288D01*
X69608Y-54205D01*
X69392Y-54204D01*
X69191Y-54287D01*
X69038Y-54440D01*
X68955Y-54641D01*
X68954Y-54857D01*
X69037Y-55058D01*
X69190Y-55211D01*
X69391Y-55294D01*
X69607Y-55295D01*
X69808Y-55212D01*
X69961Y-55059D01*
X70044Y-54858D01*
X70045Y-54642D01*
X70045Y-62142D01*
X69962Y-61941D01*
X69809Y-61788D01*
X69608Y-61705D01*
X69595Y-61705D01*
X69595Y-57363D01*
X69595Y-56636D01*
X69549Y-56408D01*
X69420Y-56215D01*
X69227Y-56086D01*
X69000Y-56041D01*
X68772Y-56086D01*
X68579Y-56215D01*
X68497Y-56338D01*
X68385Y-56198D01*
X68181Y-56086D01*
X68142Y-56077D01*
X68050Y-56124D01*
X68050Y-56950D01*
X68057Y-56950D01*
X68057Y-57050D01*
X68050Y-57050D01*
X68050Y-57875D01*
X68142Y-57922D01*
X68181Y-57913D01*
X68385Y-57801D01*
X68497Y-57661D01*
X68579Y-57784D01*
X68772Y-57913D01*
X69000Y-57958D01*
X69227Y-57913D01*
X69420Y-57784D01*
X69549Y-57591D01*
X69595Y-57363D01*
X69595Y-61705D01*
X69392Y-61704D01*
X69191Y-61787D01*
X69038Y-61940D01*
X69028Y-61965D01*
X69028Y-59884D01*
X69028Y-59615D01*
X68968Y-59471D01*
X68826Y-59313D01*
X68634Y-59221D01*
X68550Y-59269D01*
X68550Y-59700D01*
X68979Y-59700D01*
X69028Y-59615D01*
X69028Y-59884D01*
X68979Y-59800D01*
X68550Y-59800D01*
X68550Y-59807D01*
X68450Y-59807D01*
X68450Y-59800D01*
X68442Y-59800D01*
X68442Y-59700D01*
X68450Y-59700D01*
X68450Y-59269D01*
X68365Y-59221D01*
X68173Y-59313D01*
X68049Y-59451D01*
X68049Y-54830D01*
X68038Y-54614D01*
X67977Y-54465D01*
X67882Y-54438D01*
X67811Y-54509D01*
X67811Y-54367D01*
X67784Y-54272D01*
X67580Y-54200D01*
X67364Y-54211D01*
X67215Y-54272D01*
X67188Y-54367D01*
X67500Y-54679D01*
X67811Y-54367D01*
X67811Y-54509D01*
X67570Y-54750D01*
X67882Y-55061D01*
X67977Y-55034D01*
X68049Y-54830D01*
X68049Y-59451D01*
X68031Y-59471D01*
X68007Y-59530D01*
X67950Y-59445D01*
X67950Y-57875D01*
X67950Y-57050D01*
X67942Y-57050D01*
X67942Y-56950D01*
X67950Y-56950D01*
X67950Y-56124D01*
X67857Y-56077D01*
X67818Y-56086D01*
X67811Y-56089D01*
X67811Y-55132D01*
X67500Y-54820D01*
X67429Y-54891D01*
X67429Y-54750D01*
X67117Y-54438D01*
X67022Y-54465D01*
X66950Y-54669D01*
X66961Y-54885D01*
X67022Y-55034D01*
X67117Y-55061D01*
X67429Y-54750D01*
X67429Y-54891D01*
X67188Y-55132D01*
X67215Y-55227D01*
X67419Y-55299D01*
X67635Y-55288D01*
X67784Y-55227D01*
X67811Y-55132D01*
X67811Y-56089D01*
X67614Y-56198D01*
X67584Y-56236D01*
X67557Y-56168D01*
X67486Y-56098D01*
X67394Y-56060D01*
X67295Y-56059D01*
X66605Y-56059D01*
X66513Y-56097D01*
X66443Y-56168D01*
X66405Y-56260D01*
X66404Y-56359D01*
X66404Y-57739D01*
X66442Y-57831D01*
X66513Y-57901D01*
X66605Y-57939D01*
X66704Y-57940D01*
X67394Y-57940D01*
X67486Y-57902D01*
X67556Y-57831D01*
X67585Y-57763D01*
X67614Y-57801D01*
X67818Y-57913D01*
X67857Y-57922D01*
X67950Y-57875D01*
X67950Y-59445D01*
X67896Y-59364D01*
X67719Y-59246D01*
X67510Y-59205D01*
X67489Y-59205D01*
X67280Y-59246D01*
X67278Y-59248D01*
X67278Y-58634D01*
X67278Y-58365D01*
X67218Y-58221D01*
X67076Y-58063D01*
X66884Y-57971D01*
X66800Y-58019D01*
X66800Y-58450D01*
X67229Y-58450D01*
X67278Y-58365D01*
X67278Y-58634D01*
X67229Y-58550D01*
X66800Y-58550D01*
X66800Y-58980D01*
X66884Y-59028D01*
X67076Y-58936D01*
X67218Y-58778D01*
X67278Y-58634D01*
X67278Y-59248D01*
X67103Y-59364D01*
X66985Y-59541D01*
X66944Y-59750D01*
X66985Y-59958D01*
X67103Y-60135D01*
X67280Y-60253D01*
X67451Y-60287D01*
X67485Y-60458D01*
X67603Y-60635D01*
X67780Y-60753D01*
X67989Y-60795D01*
X68010Y-60795D01*
X68219Y-60753D01*
X68396Y-60635D01*
X68514Y-60458D01*
X68546Y-60295D01*
X68550Y-60295D01*
X68550Y-60278D01*
X68555Y-60250D01*
X68551Y-60231D01*
X68634Y-60278D01*
X68826Y-60186D01*
X68968Y-60028D01*
X69028Y-59884D01*
X69028Y-61965D01*
X68955Y-62141D01*
X68954Y-62357D01*
X69037Y-62558D01*
X69190Y-62711D01*
X69391Y-62794D01*
X69607Y-62795D01*
X69808Y-62712D01*
X69961Y-62559D01*
X70044Y-62358D01*
X70045Y-62142D01*
X70045Y-63230D01*
X68049Y-63230D01*
X68049Y-62330D01*
X68038Y-62114D01*
X67977Y-61965D01*
X67882Y-61938D01*
X67811Y-62009D01*
X67811Y-61867D01*
X67784Y-61772D01*
X67580Y-61700D01*
X67364Y-61711D01*
X67215Y-61772D01*
X67188Y-61867D01*
X67500Y-62179D01*
X67811Y-61867D01*
X67811Y-62009D01*
X67570Y-62250D01*
X67882Y-62561D01*
X67977Y-62534D01*
X68049Y-62330D01*
X68049Y-63230D01*
X67811Y-63230D01*
X67811Y-62632D01*
X67500Y-62320D01*
X67429Y-62391D01*
X67429Y-62250D01*
X67117Y-61938D01*
X67022Y-61965D01*
X66950Y-62169D01*
X66961Y-62385D01*
X67022Y-62534D01*
X67117Y-62561D01*
X67429Y-62250D01*
X67429Y-62391D01*
X67188Y-62632D01*
X67215Y-62727D01*
X67419Y-62799D01*
X67635Y-62788D01*
X67784Y-62727D01*
X67811Y-62632D01*
X67811Y-63230D01*
X66700Y-63230D01*
X66700Y-58980D01*
X66700Y-58550D01*
X66700Y-58450D01*
X66700Y-58019D01*
X66615Y-57971D01*
X66423Y-58063D01*
X66295Y-58206D01*
X66295Y-55495D01*
X66295Y-54905D01*
X66257Y-54813D01*
X66186Y-54743D01*
X66094Y-54705D01*
X66043Y-54704D01*
X66186Y-54576D01*
X66278Y-54384D01*
X66230Y-54300D01*
X65800Y-54300D01*
X65800Y-54307D01*
X65700Y-54307D01*
X65700Y-54300D01*
X65269Y-54300D01*
X65221Y-54384D01*
X65313Y-54576D01*
X65456Y-54704D01*
X65405Y-54704D01*
X65313Y-54742D01*
X65243Y-54813D01*
X65205Y-54905D01*
X65204Y-55004D01*
X65204Y-55594D01*
X65242Y-55686D01*
X65313Y-55756D01*
X65405Y-55794D01*
X65504Y-55795D01*
X66094Y-55795D01*
X66186Y-55757D01*
X66256Y-55686D01*
X66294Y-55594D01*
X66295Y-55495D01*
X66295Y-58206D01*
X66281Y-58221D01*
X66221Y-58365D01*
X66270Y-58450D01*
X66700Y-58450D01*
X66700Y-58550D01*
X66270Y-58550D01*
X66221Y-58634D01*
X66281Y-58778D01*
X66423Y-58936D01*
X66615Y-59028D01*
X66700Y-58980D01*
X66700Y-63230D01*
X66213Y-63230D01*
X66257Y-63186D01*
X66295Y-63094D01*
X66295Y-62405D01*
X66257Y-62313D01*
X66186Y-62243D01*
X66094Y-62205D01*
X66047Y-62205D01*
X66135Y-62146D01*
X66253Y-61969D01*
X66295Y-61760D01*
X66295Y-61739D01*
X66253Y-61530D01*
X66135Y-61353D01*
X66054Y-61300D01*
X66054Y-59081D01*
X66054Y-58081D01*
X66043Y-57863D01*
X65981Y-57712D01*
X65885Y-57684D01*
X65570Y-58000D01*
X65885Y-58315D01*
X65981Y-58287D01*
X66054Y-58081D01*
X66054Y-59081D01*
X66043Y-58863D01*
X65981Y-58712D01*
X65885Y-58684D01*
X65815Y-58755D01*
X65815Y-58614D01*
X65787Y-58518D01*
X65739Y-58501D01*
X65787Y-58481D01*
X65815Y-58385D01*
X65500Y-58070D01*
X65184Y-58385D01*
X65212Y-58481D01*
X65260Y-58498D01*
X65212Y-58518D01*
X65184Y-58614D01*
X65500Y-58929D01*
X65815Y-58614D01*
X65815Y-58755D01*
X65570Y-59000D01*
X65885Y-59315D01*
X65981Y-59287D01*
X66054Y-59081D01*
X66054Y-61300D01*
X65958Y-61235D01*
X65750Y-61194D01*
X65541Y-61235D01*
X65364Y-61353D01*
X65246Y-61530D01*
X65205Y-61739D01*
X65205Y-61760D01*
X65246Y-61969D01*
X65364Y-62146D01*
X65452Y-62205D01*
X65405Y-62205D01*
X65313Y-62243D01*
X65242Y-62313D01*
X65204Y-62405D01*
X65205Y-62637D01*
X65267Y-62700D01*
X65700Y-62700D01*
X65700Y-62692D01*
X65800Y-62692D01*
X65800Y-62700D01*
X66232Y-62700D01*
X66295Y-62637D01*
X66295Y-62405D01*
X66295Y-63094D01*
X66295Y-62862D01*
X66232Y-62800D01*
X65800Y-62800D01*
X65800Y-62807D01*
X65700Y-62807D01*
X65700Y-62800D01*
X65267Y-62800D01*
X65205Y-62862D01*
X65204Y-63094D01*
X65242Y-63186D01*
X65286Y-63230D01*
X65019Y-63230D01*
X65019Y-60277D01*
X65033Y-60311D01*
X65188Y-60465D01*
X65390Y-60549D01*
X65608Y-60550D01*
X65811Y-60466D01*
X65965Y-60311D01*
X66049Y-60109D01*
X66050Y-59891D01*
X65966Y-59688D01*
X65811Y-59534D01*
X65736Y-59502D01*
X65787Y-59481D01*
X65815Y-59385D01*
X65500Y-59070D01*
X65184Y-59385D01*
X65212Y-59481D01*
X65267Y-59500D01*
X65188Y-59533D01*
X65034Y-59688D01*
X65019Y-59722D01*
X65019Y-59288D01*
X65114Y-59315D01*
X65429Y-59000D01*
X65114Y-58684D01*
X65019Y-58711D01*
X65019Y-58288D01*
X65114Y-58315D01*
X65429Y-58000D01*
X65114Y-57684D01*
X65019Y-57711D01*
X65019Y-57473D01*
X65058Y-57511D01*
X65150Y-57549D01*
X65203Y-57550D01*
X65184Y-57614D01*
X65500Y-57929D01*
X65815Y-57614D01*
X65796Y-57550D01*
X65849Y-57550D01*
X65941Y-57512D01*
X66011Y-57441D01*
X66049Y-57349D01*
X66050Y-57250D01*
X66050Y-56650D01*
X66012Y-56558D01*
X65941Y-56488D01*
X65849Y-56450D01*
X65750Y-56449D01*
X65150Y-56449D01*
X65058Y-56487D01*
X65019Y-56526D01*
X65019Y-53769D01*
X65500Y-53769D01*
X65471Y-53781D01*
X65313Y-53923D01*
X65221Y-54115D01*
X65269Y-54200D01*
X65700Y-54200D01*
X65700Y-54192D01*
X65800Y-54192D01*
X65800Y-54200D01*
X66230Y-54200D01*
X66278Y-54115D01*
X66186Y-53923D01*
X66028Y-53781D01*
X65999Y-53769D01*
X74753Y-53769D01*
X74746Y-53780D01*
X74705Y-53989D01*
X74705Y-54010D01*
X74746Y-54219D01*
X74864Y-54396D01*
X75041Y-54514D01*
X75250Y-54555D01*
X75458Y-54514D01*
X75635Y-54396D01*
X75753Y-54219D01*
X75795Y-54010D01*
X75795Y-53989D01*
X75753Y-53780D01*
X75746Y-53769D01*
X75951Y-53769D01*
X75905Y-53881D01*
X75904Y-54117D01*
X75995Y-54336D01*
X76162Y-54504D01*
X76381Y-54594D01*
X76617Y-54595D01*
X76836Y-54504D01*
X77004Y-54337D01*
X77094Y-54118D01*
X77095Y-53882D01*
X77048Y-53769D01*
X77253Y-53769D01*
X77246Y-53780D01*
X77205Y-53989D01*
X77205Y-54010D01*
X77246Y-54219D01*
X77364Y-54396D01*
X77541Y-54514D01*
X77750Y-54555D01*
X77958Y-54514D01*
X78135Y-54396D01*
X78253Y-54219D01*
X78295Y-54010D01*
X78295Y-53989D01*
X78253Y-53780D01*
X78246Y-53769D01*
X83980Y-53769D01*
X83980Y-54972D01*
X83977Y-54965D01*
X83882Y-54938D01*
X83811Y-55009D01*
X83811Y-54867D01*
X83784Y-54772D01*
X83580Y-54700D01*
X83364Y-54711D01*
X83215Y-54772D01*
X83188Y-54867D01*
X83500Y-55179D01*
X83811Y-54867D01*
X83811Y-55009D01*
X83570Y-55250D01*
X83882Y-55561D01*
X83977Y-55534D01*
X83980Y-55525D01*
X83980Y-56500D01*
X83958Y-56485D01*
X83811Y-56456D01*
X83811Y-55632D01*
X83500Y-55320D01*
X83429Y-55391D01*
X83429Y-55250D01*
X83117Y-54938D01*
X83022Y-54965D01*
X82950Y-55169D01*
X82961Y-55385D01*
X83022Y-55534D01*
X83117Y-55561D01*
X83429Y-55250D01*
X83429Y-55391D01*
X83188Y-55632D01*
X83215Y-55727D01*
X83419Y-55799D01*
X83635Y-55788D01*
X83784Y-55727D01*
X83811Y-55632D01*
X83811Y-56456D01*
X83750Y-56444D01*
X83541Y-56485D01*
X83364Y-56603D01*
X83246Y-56780D01*
X83205Y-56989D01*
X83205Y-57010D01*
X83246Y-57219D01*
X83364Y-57396D01*
X83520Y-57500D01*
X83364Y-57603D01*
X83246Y-57780D01*
X83205Y-57989D01*
X83205Y-58010D01*
X83246Y-58219D01*
X83364Y-58396D01*
X83520Y-58500D01*
X83364Y-58603D01*
X83246Y-58780D01*
X83205Y-58989D01*
X83205Y-59010D01*
X83246Y-59219D01*
X83364Y-59396D01*
X83520Y-59500D01*
X83364Y-59603D01*
X83246Y-59780D01*
X83205Y-59989D01*
X83205Y-60010D01*
X83246Y-60219D01*
X83364Y-60396D01*
X83541Y-60514D01*
X83750Y-60555D01*
X83958Y-60514D01*
X83980Y-60499D01*
X83980Y-61472D01*
X83977Y-61465D01*
X83882Y-61438D01*
X83811Y-61509D01*
X83811Y-61367D01*
X83784Y-61272D01*
X83580Y-61200D01*
X83364Y-61211D01*
X83215Y-61272D01*
X83188Y-61367D01*
X83500Y-61679D01*
X83811Y-61367D01*
X83811Y-61509D01*
X83570Y-61750D01*
X83882Y-62061D01*
X83977Y-62034D01*
X83980Y-62025D01*
X83980Y-63230D01*
X83980Y-63230D01*
G37*
G54D20*
X83980Y-63230D02*
X83811Y-63230D01*
X83811Y-62132D01*
X83500Y-61820D01*
X83429Y-61891D01*
X83429Y-61750D01*
X83117Y-61438D01*
X83022Y-61465D01*
X82950Y-61669D01*
X82961Y-61885D01*
X83022Y-62034D01*
X83117Y-62061D01*
X83429Y-61750D01*
X83429Y-61891D01*
X83188Y-62132D01*
X83215Y-62227D01*
X83419Y-62299D01*
X83635Y-62288D01*
X83784Y-62227D01*
X83811Y-62132D01*
X83811Y-63230D01*
X82045Y-63230D01*
X82045Y-61642D01*
X82045Y-55142D01*
X81962Y-54941D01*
X81809Y-54788D01*
X81608Y-54705D01*
X81392Y-54704D01*
X81191Y-54787D01*
X81038Y-54940D01*
X80955Y-55141D01*
X80954Y-55357D01*
X81037Y-55558D01*
X81190Y-55711D01*
X81391Y-55794D01*
X81607Y-55795D01*
X81808Y-55712D01*
X81961Y-55559D01*
X82044Y-55358D01*
X82045Y-55142D01*
X82045Y-61642D01*
X81962Y-61441D01*
X81809Y-61288D01*
X81608Y-61205D01*
X81392Y-61204D01*
X81295Y-61244D01*
X81295Y-57245D01*
X81295Y-56655D01*
X81257Y-56563D01*
X81186Y-56493D01*
X81094Y-56455D01*
X80995Y-56454D01*
X80405Y-56454D01*
X80313Y-56492D01*
X80295Y-56511D01*
X80295Y-54995D01*
X80295Y-54405D01*
X80257Y-54313D01*
X80186Y-54243D01*
X80094Y-54205D01*
X79995Y-54204D01*
X79405Y-54204D01*
X79313Y-54242D01*
X79243Y-54313D01*
X79205Y-54405D01*
X79204Y-54504D01*
X79204Y-55094D01*
X79242Y-55186D01*
X79313Y-55256D01*
X79405Y-55294D01*
X79456Y-55295D01*
X79313Y-55423D01*
X79221Y-55615D01*
X79269Y-55700D01*
X79700Y-55700D01*
X79700Y-55692D01*
X79800Y-55692D01*
X79800Y-55700D01*
X80230Y-55700D01*
X80278Y-55615D01*
X80186Y-55423D01*
X80043Y-55295D01*
X80094Y-55295D01*
X80186Y-55257D01*
X80256Y-55186D01*
X80294Y-55094D01*
X80295Y-54995D01*
X80295Y-56511D01*
X80278Y-56528D01*
X80278Y-55884D01*
X80230Y-55800D01*
X79800Y-55800D01*
X79800Y-56229D01*
X79884Y-56278D01*
X80028Y-56218D01*
X80186Y-56076D01*
X80278Y-55884D01*
X80278Y-56528D01*
X80243Y-56563D01*
X80205Y-56655D01*
X80204Y-56754D01*
X80204Y-57344D01*
X80242Y-57436D01*
X80313Y-57506D01*
X80405Y-57544D01*
X80452Y-57544D01*
X80364Y-57603D01*
X80246Y-57780D01*
X80205Y-57989D01*
X80205Y-58010D01*
X80246Y-58219D01*
X80364Y-58396D01*
X80530Y-58507D01*
X80471Y-58531D01*
X80313Y-58673D01*
X80221Y-58865D01*
X80269Y-58950D01*
X80700Y-58950D01*
X80700Y-58942D01*
X80800Y-58942D01*
X80800Y-58950D01*
X81230Y-58950D01*
X81278Y-58865D01*
X81186Y-58673D01*
X81028Y-58531D01*
X80969Y-58507D01*
X81135Y-58396D01*
X81253Y-58219D01*
X81295Y-58010D01*
X81295Y-57989D01*
X81253Y-57780D01*
X81135Y-57603D01*
X81047Y-57545D01*
X81094Y-57545D01*
X81186Y-57507D01*
X81256Y-57436D01*
X81294Y-57344D01*
X81295Y-57245D01*
X81295Y-61244D01*
X81295Y-61245D01*
X81295Y-60010D01*
X81295Y-59989D01*
X81253Y-59780D01*
X81135Y-59603D01*
X80969Y-59492D01*
X81028Y-59468D01*
X81186Y-59326D01*
X81278Y-59134D01*
X81230Y-59050D01*
X80800Y-59050D01*
X80800Y-59057D01*
X80700Y-59057D01*
X80700Y-59050D01*
X80269Y-59050D01*
X80221Y-59134D01*
X80313Y-59326D01*
X80471Y-59468D01*
X80530Y-59492D01*
X80364Y-59603D01*
X80246Y-59780D01*
X80205Y-59989D01*
X80205Y-60010D01*
X80246Y-60219D01*
X80364Y-60396D01*
X80541Y-60514D01*
X80750Y-60555D01*
X80958Y-60514D01*
X81135Y-60396D01*
X81253Y-60219D01*
X81295Y-60010D01*
X81295Y-61245D01*
X81191Y-61287D01*
X81038Y-61440D01*
X80955Y-61641D01*
X80954Y-61857D01*
X81037Y-62058D01*
X81190Y-62211D01*
X81391Y-62294D01*
X81607Y-62295D01*
X81808Y-62212D01*
X81961Y-62059D01*
X82044Y-61858D01*
X82045Y-61642D01*
X82045Y-63230D01*
X80295Y-63230D01*
X80295Y-61594D01*
X80295Y-60905D01*
X80257Y-60813D01*
X80186Y-60743D01*
X80094Y-60705D01*
X79995Y-60704D01*
X79862Y-60705D01*
X79800Y-60767D01*
X79800Y-61200D01*
X80232Y-61200D01*
X80295Y-61137D01*
X80295Y-60905D01*
X80295Y-61594D01*
X80295Y-61362D01*
X80232Y-61300D01*
X79800Y-61300D01*
X79800Y-61307D01*
X79795Y-61307D01*
X79795Y-58245D01*
X79795Y-57655D01*
X79757Y-57563D01*
X79700Y-57506D01*
X79700Y-56229D01*
X79700Y-55800D01*
X79269Y-55800D01*
X79221Y-55884D01*
X79313Y-56076D01*
X79471Y-56218D01*
X79615Y-56278D01*
X79700Y-56229D01*
X79700Y-57506D01*
X79686Y-57493D01*
X79594Y-57455D01*
X79495Y-57454D01*
X78905Y-57454D01*
X78813Y-57492D01*
X78743Y-57563D01*
X78705Y-57655D01*
X78704Y-57754D01*
X78704Y-58344D01*
X78742Y-58436D01*
X78813Y-58506D01*
X78905Y-58544D01*
X78952Y-58544D01*
X78864Y-58603D01*
X78746Y-58780D01*
X78705Y-58989D01*
X78705Y-59010D01*
X78746Y-59219D01*
X78864Y-59396D01*
X79041Y-59514D01*
X79250Y-59555D01*
X79458Y-59514D01*
X79635Y-59396D01*
X79753Y-59219D01*
X79795Y-59010D01*
X79795Y-58989D01*
X79753Y-58780D01*
X79635Y-58603D01*
X79547Y-58545D01*
X79594Y-58545D01*
X79686Y-58507D01*
X79756Y-58436D01*
X79794Y-58344D01*
X79795Y-58245D01*
X79795Y-61307D01*
X79700Y-61307D01*
X79700Y-61300D01*
X79700Y-61200D01*
X79700Y-60767D01*
X79637Y-60705D01*
X79504Y-60704D01*
X79405Y-60705D01*
X79313Y-60743D01*
X79242Y-60813D01*
X79204Y-60905D01*
X79205Y-61137D01*
X79267Y-61200D01*
X79700Y-61200D01*
X79700Y-61300D01*
X79267Y-61300D01*
X79205Y-61362D01*
X79204Y-61594D01*
X79242Y-61686D01*
X79313Y-61756D01*
X79405Y-61794D01*
X79452Y-61794D01*
X79364Y-61853D01*
X79246Y-62030D01*
X79205Y-62239D01*
X79205Y-62260D01*
X79246Y-62469D01*
X79364Y-62646D01*
X79541Y-62764D01*
X79750Y-62805D01*
X79958Y-62764D01*
X80135Y-62646D01*
X80253Y-62469D01*
X80295Y-62260D01*
X80295Y-62239D01*
X80253Y-62030D01*
X80135Y-61853D01*
X80047Y-61794D01*
X80094Y-61794D01*
X80186Y-61756D01*
X80257Y-61686D01*
X80295Y-61594D01*
X80295Y-63230D01*
X78246Y-63230D01*
X78253Y-63219D01*
X78295Y-63010D01*
X78295Y-62989D01*
X78295Y-59010D01*
X78295Y-58989D01*
X78253Y-58780D01*
X78135Y-58603D01*
X77979Y-58500D01*
X78135Y-58396D01*
X78253Y-58219D01*
X78295Y-58010D01*
X78295Y-57989D01*
X78253Y-57780D01*
X78135Y-57603D01*
X77958Y-57485D01*
X77750Y-57444D01*
X77541Y-57485D01*
X77364Y-57603D01*
X77246Y-57780D01*
X77205Y-57989D01*
X77205Y-58010D01*
X77246Y-58219D01*
X77364Y-58396D01*
X77520Y-58500D01*
X77364Y-58603D01*
X77246Y-58780D01*
X77205Y-58989D01*
X77205Y-59010D01*
X77246Y-59219D01*
X77364Y-59396D01*
X77541Y-59514D01*
X77750Y-59555D01*
X77958Y-59514D01*
X78135Y-59396D01*
X78253Y-59219D01*
X78295Y-59010D01*
X78295Y-62989D01*
X78253Y-62780D01*
X78135Y-62603D01*
X77958Y-62485D01*
X77750Y-62444D01*
X77541Y-62485D01*
X77364Y-62603D01*
X77246Y-62780D01*
X77205Y-62989D01*
X77205Y-63010D01*
X77246Y-63219D01*
X77253Y-63230D01*
X77048Y-63230D01*
X77094Y-63118D01*
X77095Y-62882D01*
X77095Y-58882D01*
X77004Y-58663D01*
X76841Y-58499D01*
X77004Y-58337D01*
X77094Y-58118D01*
X77095Y-57882D01*
X77004Y-57663D01*
X76837Y-57495D01*
X76618Y-57405D01*
X76382Y-57404D01*
X76163Y-57495D01*
X75995Y-57662D01*
X75905Y-57881D01*
X75904Y-58117D01*
X75995Y-58336D01*
X76158Y-58500D01*
X75995Y-58662D01*
X75905Y-58881D01*
X75904Y-59117D01*
X75995Y-59336D01*
X76162Y-59504D01*
X76381Y-59594D01*
X76617Y-59595D01*
X76836Y-59504D01*
X77004Y-59337D01*
X77094Y-59118D01*
X77095Y-58882D01*
X77095Y-62882D01*
X77004Y-62663D01*
X76837Y-62495D01*
X76618Y-62405D01*
X76382Y-62404D01*
X76163Y-62495D01*
X75995Y-62662D01*
X75905Y-62881D01*
X75904Y-63117D01*
X75951Y-63230D01*
X75746Y-63230D01*
X75753Y-63219D01*
X75795Y-63010D01*
X75795Y-62989D01*
X75795Y-59010D01*
X75795Y-58989D01*
X75753Y-58780D01*
X75635Y-58603D01*
X75479Y-58500D01*
X75635Y-58396D01*
X75753Y-58219D01*
X75795Y-58010D01*
X75795Y-57989D01*
X75753Y-57780D01*
X75635Y-57603D01*
X75458Y-57485D01*
X75250Y-57444D01*
X75041Y-57485D01*
X74864Y-57603D01*
X74746Y-57780D01*
X74705Y-57989D01*
X74705Y-58010D01*
X74746Y-58219D01*
X74864Y-58396D01*
X75020Y-58500D01*
X74864Y-58603D01*
X74746Y-58780D01*
X74705Y-58989D01*
X74705Y-59010D01*
X74746Y-59219D01*
X74864Y-59396D01*
X75041Y-59514D01*
X75250Y-59555D01*
X75458Y-59514D01*
X75635Y-59396D01*
X75753Y-59219D01*
X75795Y-59010D01*
X75795Y-62989D01*
X75753Y-62780D01*
X75635Y-62603D01*
X75458Y-62485D01*
X75250Y-62444D01*
X75041Y-62485D01*
X74864Y-62603D01*
X74746Y-62780D01*
X74705Y-62989D01*
X74705Y-63010D01*
X74746Y-63219D01*
X74753Y-63230D01*
X74431Y-63230D01*
X74431Y-58216D01*
X74213Y-57690D01*
X73811Y-57287D01*
X73285Y-57069D01*
X72988Y-57068D01*
X72988Y-55330D01*
X72977Y-55114D01*
X72916Y-54965D01*
X72821Y-54938D01*
X72509Y-55250D01*
X72821Y-55561D01*
X72916Y-55534D01*
X72988Y-55330D01*
X72988Y-57068D01*
X72750Y-57068D01*
X72750Y-55632D01*
X72438Y-55320D01*
X72433Y-55326D01*
X72362Y-55255D01*
X72368Y-55250D01*
X72362Y-55244D01*
X72433Y-55173D01*
X72438Y-55179D01*
X72750Y-54867D01*
X72723Y-54772D01*
X72519Y-54700D01*
X72303Y-54711D01*
X72295Y-54714D01*
X72295Y-54649D01*
X72212Y-54449D01*
X72059Y-54296D01*
X71858Y-54212D01*
X71642Y-54212D01*
X71441Y-54295D01*
X71288Y-54448D01*
X71205Y-54648D01*
X71205Y-54719D01*
X71169Y-54705D01*
X70953Y-54704D01*
X70752Y-54787D01*
X70599Y-54940D01*
X70516Y-55141D01*
X70515Y-55357D01*
X70598Y-55558D01*
X70751Y-55711D01*
X70952Y-55794D01*
X71168Y-55795D01*
X71206Y-55779D01*
X71211Y-55878D01*
X71272Y-56026D01*
X71367Y-56053D01*
X71679Y-55742D01*
X71673Y-55736D01*
X71744Y-55665D01*
X71750Y-55671D01*
X71755Y-55665D01*
X71826Y-55736D01*
X71820Y-55742D01*
X72132Y-56053D01*
X72227Y-56026D01*
X72299Y-55822D01*
X72297Y-55778D01*
X72358Y-55799D01*
X72574Y-55788D01*
X72723Y-55727D01*
X72750Y-55632D01*
X72750Y-57068D01*
X72716Y-57068D01*
X72190Y-57286D01*
X72061Y-57414D01*
X72061Y-56124D01*
X71750Y-55812D01*
X71438Y-56124D01*
X71465Y-56219D01*
X71669Y-56291D01*
X71885Y-56280D01*
X72034Y-56219D01*
X72061Y-56124D01*
X72061Y-57414D01*
X71787Y-57688D01*
X71569Y-58214D01*
X71568Y-58783D01*
X71786Y-59309D01*
X72188Y-59712D01*
X72714Y-59930D01*
X73283Y-59931D01*
X73809Y-59713D01*
X74212Y-59311D01*
X74430Y-58785D01*
X74431Y-58216D01*
X74431Y-63230D01*
X72988Y-63230D01*
X72988Y-61830D01*
X72977Y-61614D01*
X72916Y-61465D01*
X72821Y-61438D01*
X72509Y-61750D01*
X72821Y-62061D01*
X72916Y-62034D01*
X72988Y-61830D01*
X72988Y-63230D01*
X72750Y-63230D01*
X72750Y-62132D01*
X72438Y-61820D01*
X72433Y-61826D01*
X72362Y-61755D01*
X72368Y-61750D01*
X72362Y-61744D01*
X72433Y-61673D01*
X72438Y-61679D01*
X72750Y-61367D01*
X72723Y-61272D01*
X72519Y-61200D01*
X72303Y-61211D01*
X72295Y-61214D01*
X72295Y-61149D01*
X72212Y-60949D01*
X72059Y-60796D01*
X71858Y-60712D01*
X71642Y-60712D01*
X71441Y-60795D01*
X71305Y-60931D01*
X71305Y-58500D01*
X71264Y-58291D01*
X71146Y-58114D01*
X70969Y-57996D01*
X70760Y-57955D01*
X70739Y-57955D01*
X70530Y-57996D01*
X70353Y-58114D01*
X70235Y-58291D01*
X70194Y-58500D01*
X70235Y-58708D01*
X70353Y-58885D01*
X70530Y-59003D01*
X70739Y-59045D01*
X70760Y-59045D01*
X70969Y-59003D01*
X71146Y-58885D01*
X71264Y-58708D01*
X71305Y-58500D01*
X71305Y-60931D01*
X71288Y-60948D01*
X71205Y-61148D01*
X71205Y-61219D01*
X71169Y-61205D01*
X70953Y-61204D01*
X70752Y-61287D01*
X70599Y-61440D01*
X70516Y-61641D01*
X70515Y-61857D01*
X70598Y-62058D01*
X70751Y-62211D01*
X70952Y-62294D01*
X71168Y-62295D01*
X71206Y-62279D01*
X71211Y-62378D01*
X71272Y-62526D01*
X71367Y-62553D01*
X71679Y-62242D01*
X71673Y-62236D01*
X71744Y-62165D01*
X71750Y-62171D01*
X71755Y-62165D01*
X71826Y-62236D01*
X71820Y-62242D01*
X72132Y-62553D01*
X72227Y-62526D01*
X72299Y-62322D01*
X72297Y-62278D01*
X72358Y-62299D01*
X72574Y-62288D01*
X72723Y-62227D01*
X72750Y-62132D01*
X72750Y-63230D01*
X72061Y-63230D01*
X72061Y-62624D01*
X71750Y-62312D01*
X71438Y-62624D01*
X71465Y-62719D01*
X71669Y-62791D01*
X71885Y-62780D01*
X72034Y-62719D01*
X72061Y-62624D01*
X72061Y-63230D01*
X70045Y-63230D01*
X70045Y-62142D01*
X70045Y-54642D01*
X69962Y-54441D01*
X69809Y-54288D01*
X69608Y-54205D01*
X69392Y-54204D01*
X69191Y-54287D01*
X69038Y-54440D01*
X68955Y-54641D01*
X68954Y-54857D01*
X69037Y-55058D01*
X69190Y-55211D01*
X69391Y-55294D01*
X69607Y-55295D01*
X69808Y-55212D01*
X69961Y-55059D01*
X70044Y-54858D01*
X70045Y-54642D01*
X70045Y-62142D01*
X69962Y-61941D01*
X69809Y-61788D01*
X69608Y-61705D01*
X69595Y-61705D01*
X69595Y-57363D01*
X69595Y-56636D01*
X69549Y-56408D01*
X69420Y-56215D01*
X69227Y-56086D01*
X69000Y-56041D01*
X68772Y-56086D01*
X68579Y-56215D01*
X68497Y-56338D01*
X68385Y-56198D01*
X68181Y-56086D01*
X68142Y-56077D01*
X68050Y-56124D01*
X68050Y-56950D01*
X68057Y-56950D01*
X68057Y-57050D01*
X68050Y-57050D01*
X68050Y-57875D01*
X68142Y-57922D01*
X68181Y-57913D01*
X68385Y-57801D01*
X68497Y-57661D01*
X68579Y-57784D01*
X68772Y-57913D01*
X69000Y-57958D01*
X69227Y-57913D01*
X69420Y-57784D01*
X69549Y-57591D01*
X69595Y-57363D01*
X69595Y-61705D01*
X69392Y-61704D01*
X69191Y-61787D01*
X69038Y-61940D01*
X69028Y-61965D01*
X69028Y-59884D01*
X69028Y-59615D01*
X68968Y-59471D01*
X68826Y-59313D01*
X68634Y-59221D01*
X68550Y-59269D01*
X68550Y-59700D01*
X68979Y-59700D01*
X69028Y-59615D01*
X69028Y-59884D01*
X68979Y-59800D01*
X68550Y-59800D01*
X68550Y-59807D01*
X68450Y-59807D01*
X68450Y-59800D01*
X68442Y-59800D01*
X68442Y-59700D01*
X68450Y-59700D01*
X68450Y-59269D01*
X68365Y-59221D01*
X68173Y-59313D01*
X68049Y-59451D01*
X68049Y-54830D01*
X68038Y-54614D01*
X67977Y-54465D01*
X67882Y-54438D01*
X67811Y-54509D01*
X67811Y-54367D01*
X67784Y-54272D01*
X67580Y-54200D01*
X67364Y-54211D01*
X67215Y-54272D01*
X67188Y-54367D01*
X67500Y-54679D01*
X67811Y-54367D01*
X67811Y-54509D01*
X67570Y-54750D01*
X67882Y-55061D01*
X67977Y-55034D01*
X68049Y-54830D01*
X68049Y-59451D01*
X68031Y-59471D01*
X68007Y-59530D01*
X67950Y-59445D01*
X67950Y-57875D01*
X67950Y-57050D01*
X67942Y-57050D01*
X67942Y-56950D01*
X67950Y-56950D01*
X67950Y-56124D01*
X67857Y-56077D01*
X67818Y-56086D01*
X67811Y-56089D01*
X67811Y-55132D01*
X67500Y-54820D01*
X67429Y-54891D01*
X67429Y-54750D01*
X67117Y-54438D01*
X67022Y-54465D01*
X66950Y-54669D01*
X66961Y-54885D01*
X67022Y-55034D01*
X67117Y-55061D01*
X67429Y-54750D01*
X67429Y-54891D01*
X67188Y-55132D01*
X67215Y-55227D01*
X67419Y-55299D01*
X67635Y-55288D01*
X67784Y-55227D01*
X67811Y-55132D01*
X67811Y-56089D01*
X67614Y-56198D01*
X67584Y-56236D01*
X67557Y-56168D01*
X67486Y-56098D01*
X67394Y-56060D01*
X67295Y-56059D01*
X66605Y-56059D01*
X66513Y-56097D01*
X66443Y-56168D01*
X66405Y-56260D01*
X66404Y-56359D01*
X66404Y-57739D01*
X66442Y-57831D01*
X66513Y-57901D01*
X66605Y-57939D01*
X66704Y-57940D01*
X67394Y-57940D01*
X67486Y-57902D01*
X67556Y-57831D01*
X67585Y-57763D01*
X67614Y-57801D01*
X67818Y-57913D01*
X67857Y-57922D01*
X67950Y-57875D01*
X67950Y-59445D01*
X67896Y-59364D01*
X67719Y-59246D01*
X67510Y-59205D01*
X67489Y-59205D01*
X67280Y-59246D01*
X67278Y-59248D01*
X67278Y-58634D01*
X67278Y-58365D01*
X67218Y-58221D01*
X67076Y-58063D01*
X66884Y-57971D01*
X66800Y-58019D01*
X66800Y-58450D01*
X67229Y-58450D01*
X67278Y-58365D01*
X67278Y-58634D01*
X67229Y-58550D01*
X66800Y-58550D01*
X66800Y-58980D01*
X66884Y-59028D01*
X67076Y-58936D01*
X67218Y-58778D01*
X67278Y-58634D01*
X67278Y-59248D01*
X67103Y-59364D01*
X66985Y-59541D01*
X66944Y-59750D01*
X66985Y-59958D01*
X67103Y-60135D01*
X67280Y-60253D01*
X67451Y-60287D01*
X67485Y-60458D01*
X67603Y-60635D01*
X67780Y-60753D01*
X67989Y-60795D01*
X68010Y-60795D01*
X68219Y-60753D01*
X68396Y-60635D01*
X68514Y-60458D01*
X68546Y-60295D01*
X68550Y-60295D01*
X68550Y-60278D01*
X68555Y-60250D01*
X68551Y-60231D01*
X68634Y-60278D01*
X68826Y-60186D01*
X68968Y-60028D01*
X69028Y-59884D01*
X69028Y-61965D01*
X68955Y-62141D01*
X68954Y-62357D01*
X69037Y-62558D01*
X69190Y-62711D01*
X69391Y-62794D01*
X69607Y-62795D01*
X69808Y-62712D01*
X69961Y-62559D01*
X70044Y-62358D01*
X70045Y-62142D01*
X70045Y-63230D01*
X68049Y-63230D01*
X68049Y-62330D01*
X68038Y-62114D01*
X67977Y-61965D01*
X67882Y-61938D01*
X67811Y-62009D01*
X67811Y-61867D01*
X67784Y-61772D01*
X67580Y-61700D01*
X67364Y-61711D01*
X67215Y-61772D01*
X67188Y-61867D01*
X67500Y-62179D01*
X67811Y-61867D01*
X67811Y-62009D01*
X67570Y-62250D01*
X67882Y-62561D01*
X67977Y-62534D01*
X68049Y-62330D01*
X68049Y-63230D01*
X67811Y-63230D01*
X67811Y-62632D01*
X67500Y-62320D01*
X67429Y-62391D01*
X67429Y-62250D01*
X67117Y-61938D01*
X67022Y-61965D01*
X66950Y-62169D01*
X66961Y-62385D01*
X67022Y-62534D01*
X67117Y-62561D01*
X67429Y-62250D01*
X67429Y-62391D01*
X67188Y-62632D01*
X67215Y-62727D01*
X67419Y-62799D01*
X67635Y-62788D01*
X67784Y-62727D01*
X67811Y-62632D01*
X67811Y-63230D01*
X66700Y-63230D01*
X66700Y-58980D01*
X66700Y-58550D01*
X66700Y-58450D01*
X66700Y-58019D01*
X66615Y-57971D01*
X66423Y-58063D01*
X66295Y-58206D01*
X66295Y-55495D01*
X66295Y-54905D01*
X66257Y-54813D01*
X66186Y-54743D01*
X66094Y-54705D01*
X66043Y-54704D01*
X66186Y-54576D01*
X66278Y-54384D01*
X66230Y-54300D01*
X65800Y-54300D01*
X65800Y-54307D01*
X65700Y-54307D01*
X65700Y-54300D01*
X65269Y-54300D01*
X65221Y-54384D01*
X65313Y-54576D01*
X65456Y-54704D01*
X65405Y-54704D01*
X65313Y-54742D01*
X65243Y-54813D01*
X65205Y-54905D01*
X65204Y-55004D01*
X65204Y-55594D01*
X65242Y-55686D01*
X65313Y-55756D01*
X65405Y-55794D01*
X65504Y-55795D01*
X66094Y-55795D01*
X66186Y-55757D01*
X66256Y-55686D01*
X66294Y-55594D01*
X66295Y-55495D01*
X66295Y-58206D01*
X66281Y-58221D01*
X66221Y-58365D01*
X66270Y-58450D01*
X66700Y-58450D01*
X66700Y-58550D01*
X66270Y-58550D01*
X66221Y-58634D01*
X66281Y-58778D01*
X66423Y-58936D01*
X66615Y-59028D01*
X66700Y-58980D01*
X66700Y-63230D01*
X66213Y-63230D01*
X66257Y-63186D01*
X66295Y-63094D01*
X66295Y-62405D01*
X66257Y-62313D01*
X66186Y-62243D01*
X66094Y-62205D01*
X66047Y-62205D01*
X66135Y-62146D01*
X66253Y-61969D01*
X66295Y-61760D01*
X66295Y-61739D01*
X66253Y-61530D01*
X66135Y-61353D01*
X66054Y-61300D01*
X66054Y-59081D01*
X66054Y-58081D01*
X66043Y-57863D01*
X65981Y-57712D01*
X65885Y-57684D01*
X65570Y-58000D01*
X65885Y-58315D01*
X65981Y-58287D01*
X66054Y-58081D01*
X66054Y-59081D01*
X66043Y-58863D01*
X65981Y-58712D01*
X65885Y-58684D01*
X65815Y-58755D01*
X65815Y-58614D01*
X65787Y-58518D01*
X65739Y-58501D01*
X65787Y-58481D01*
X65815Y-58385D01*
X65500Y-58070D01*
X65184Y-58385D01*
X65212Y-58481D01*
X65260Y-58498D01*
X65212Y-58518D01*
X65184Y-58614D01*
X65500Y-58929D01*
X65815Y-58614D01*
X65815Y-58755D01*
X65570Y-59000D01*
X65885Y-59315D01*
X65981Y-59287D01*
X66054Y-59081D01*
X66054Y-61300D01*
X65958Y-61235D01*
X65750Y-61194D01*
X65541Y-61235D01*
X65364Y-61353D01*
X65246Y-61530D01*
X65205Y-61739D01*
X65205Y-61760D01*
X65246Y-61969D01*
X65364Y-62146D01*
X65452Y-62205D01*
X65405Y-62205D01*
X65313Y-62243D01*
X65242Y-62313D01*
X65204Y-62405D01*
X65205Y-62637D01*
X65267Y-62700D01*
X65700Y-62700D01*
X65700Y-62692D01*
X65800Y-62692D01*
X65800Y-62700D01*
X66232Y-62700D01*
X66295Y-62637D01*
X66295Y-62405D01*
X66295Y-63094D01*
X66295Y-62862D01*
X66232Y-62800D01*
X65800Y-62800D01*
X65800Y-62807D01*
X65700Y-62807D01*
X65700Y-62800D01*
X65267Y-62800D01*
X65205Y-62862D01*
X65204Y-63094D01*
X65242Y-63186D01*
X65286Y-63230D01*
X65019Y-63230D01*
X65019Y-60277D01*
X65033Y-60311D01*
X65188Y-60465D01*
X65390Y-60549D01*
X65608Y-60550D01*
X65811Y-60466D01*
X65965Y-60311D01*
X66049Y-60109D01*
X66050Y-59891D01*
X65966Y-59688D01*
X65811Y-59534D01*
X65736Y-59502D01*
X65787Y-59481D01*
X65815Y-59385D01*
X65500Y-59070D01*
X65184Y-59385D01*
X65212Y-59481D01*
X65267Y-59500D01*
X65188Y-59533D01*
X65034Y-59688D01*
X65019Y-59722D01*
X65019Y-59288D01*
X65114Y-59315D01*
X65429Y-59000D01*
X65114Y-58684D01*
X65019Y-58711D01*
X65019Y-58288D01*
X65114Y-58315D01*
X65429Y-58000D01*
X65114Y-57684D01*
X65019Y-57711D01*
X65019Y-57473D01*
X65058Y-57511D01*
X65150Y-57549D01*
X65203Y-57550D01*
X65184Y-57614D01*
X65500Y-57929D01*
X65815Y-57614D01*
X65796Y-57550D01*
X65849Y-57550D01*
X65941Y-57512D01*
X66011Y-57441D01*
X66049Y-57349D01*
X66050Y-57250D01*
X66050Y-56650D01*
X66012Y-56558D01*
X65941Y-56488D01*
X65849Y-56450D01*
X65750Y-56449D01*
X65150Y-56449D01*
X65058Y-56487D01*
X65019Y-56526D01*
X65019Y-53769D01*
X65500Y-53769D01*
X65471Y-53781D01*
X65313Y-53923D01*
X65221Y-54115D01*
X65269Y-54200D01*
X65700Y-54200D01*
X65700Y-54192D01*
X65800Y-54192D01*
X65800Y-54200D01*
X66230Y-54200D01*
X66278Y-54115D01*
X66186Y-53923D01*
X66028Y-53781D01*
X65999Y-53769D01*
X74753Y-53769D01*
X74746Y-53780D01*
X74705Y-53989D01*
X74705Y-54010D01*
X74746Y-54219D01*
X74864Y-54396D01*
X75041Y-54514D01*
X75250Y-54555D01*
X75458Y-54514D01*
X75635Y-54396D01*
X75753Y-54219D01*
X75795Y-54010D01*
X75795Y-53989D01*
X75753Y-53780D01*
X75746Y-53769D01*
X75951Y-53769D01*
X75905Y-53881D01*
X75904Y-54117D01*
X75995Y-54336D01*
X76162Y-54504D01*
X76381Y-54594D01*
X76617Y-54595D01*
X76836Y-54504D01*
X77004Y-54337D01*
X77094Y-54118D01*
X77095Y-53882D01*
X77048Y-53769D01*
X77253Y-53769D01*
X77246Y-53780D01*
X77205Y-53989D01*
X77205Y-54010D01*
X77246Y-54219D01*
X77364Y-54396D01*
X77541Y-54514D01*
X77750Y-54555D01*
X77958Y-54514D01*
X78135Y-54396D01*
X78253Y-54219D01*
X78295Y-54010D01*
X78295Y-53989D01*
X78253Y-53780D01*
X78246Y-53769D01*
X83980Y-53769D01*
X83980Y-54972D01*
X83977Y-54965D01*
X83882Y-54938D01*
X83811Y-55009D01*
X83811Y-54867D01*
X83784Y-54772D01*
X83580Y-54700D01*
X83364Y-54711D01*
X83215Y-54772D01*
X83188Y-54867D01*
X83500Y-55179D01*
X83811Y-54867D01*
X83811Y-55009D01*
X83570Y-55250D01*
X83882Y-55561D01*
X83977Y-55534D01*
X83980Y-55525D01*
X83980Y-56500D01*
X83958Y-56485D01*
X83811Y-56456D01*
X83811Y-55632D01*
X83500Y-55320D01*
X83429Y-55391D01*
X83429Y-55250D01*
X83117Y-54938D01*
X83022Y-54965D01*
X82950Y-55169D01*
X82961Y-55385D01*
X83022Y-55534D01*
X83117Y-55561D01*
X83429Y-55250D01*
X83429Y-55391D01*
X83188Y-55632D01*
X83215Y-55727D01*
X83419Y-55799D01*
X83635Y-55788D01*
X83784Y-55727D01*
X83811Y-55632D01*
X83811Y-56456D01*
X83750Y-56444D01*
X83541Y-56485D01*
X83364Y-56603D01*
X83246Y-56780D01*
X83205Y-56989D01*
X83205Y-57010D01*
X83246Y-57219D01*
X83364Y-57396D01*
X83520Y-57500D01*
X83364Y-57603D01*
X83246Y-57780D01*
X83205Y-57989D01*
X83205Y-58010D01*
X83246Y-58219D01*
X83364Y-58396D01*
X83520Y-58500D01*
X83364Y-58603D01*
X83246Y-58780D01*
X83205Y-58989D01*
X83205Y-59010D01*
X83246Y-59219D01*
X83364Y-59396D01*
X83520Y-59500D01*
X83364Y-59603D01*
X83246Y-59780D01*
X83205Y-59989D01*
X83205Y-60010D01*
X83246Y-60219D01*
X83364Y-60396D01*
X83541Y-60514D01*
X83750Y-60555D01*
X83958Y-60514D01*
X83980Y-60499D01*
X83980Y-61472D01*
X83977Y-61465D01*
X83882Y-61438D01*
X83811Y-61509D01*
X83811Y-61367D01*
X83784Y-61272D01*
X83580Y-61200D01*
X83364Y-61211D01*
X83215Y-61272D01*
X83188Y-61367D01*
X83500Y-61679D01*
X83811Y-61367D01*
X83811Y-61509D01*
X83570Y-61750D01*
X83882Y-62061D01*
X83977Y-62034D01*
X83980Y-62025D01*
X83980Y-63230D01*
M02*
