G04 (created by PCBNEW (2013-07-07 BZR 4022)-stable) date 8/2/2014 11:46:22 PM*
%MOIN*%
G04 Gerber Fmt 3.4, Leading zero omitted, Abs format*
%FSLAX34Y34*%
G01*
G70*
G90*
G04 APERTURE LIST*
%ADD10C,0.00590551*%
%ADD11O,0.059X0.059*%
%ADD12R,0.069X0.138*%
%ADD13O,0.069X0.138*%
%ADD14R,0.06X0.06*%
%ADD15C,0.06*%
%ADD16C,0.059*%
%ADD17C,0.069*%
%ADD18R,0.059X0.059*%
%ADD19C,0.23622*%
%ADD20C,0.03*%
%ADD21C,0.01*%
G04 APERTURE END LIST*
G54D10*
G54D11*
X68500Y-59750D03*
X68000Y-60250D03*
X67500Y-59750D03*
G54D12*
X67000Y-57000D03*
G54D13*
X68000Y-57000D03*
X69000Y-57000D03*
G54D11*
X70750Y-58500D03*
X66750Y-58500D03*
X77750Y-58000D03*
X77750Y-54000D03*
X75250Y-58000D03*
X75250Y-54000D03*
X77750Y-63000D03*
X77750Y-59000D03*
X75250Y-63000D03*
X75250Y-59000D03*
G54D14*
X65500Y-57000D03*
G54D15*
X65500Y-58000D03*
X65500Y-59000D03*
X65500Y-60000D03*
G54D16*
X71750Y-61257D03*
X72438Y-61750D03*
X71061Y-61750D03*
X71750Y-62242D03*
X71750Y-55742D03*
X71061Y-55250D03*
X72438Y-55250D03*
X71750Y-54757D03*
G54D17*
X76500Y-59000D03*
X76500Y-63000D03*
X76500Y-54000D03*
X76500Y-58000D03*
G54D18*
X65750Y-62750D03*
G54D11*
X65750Y-61750D03*
G54D18*
X79750Y-61250D03*
G54D11*
X79750Y-62250D03*
G54D18*
X79750Y-54750D03*
G54D11*
X79750Y-55750D03*
G54D18*
X79250Y-58000D03*
G54D11*
X79250Y-59000D03*
G54D18*
X65750Y-55250D03*
G54D11*
X65750Y-54250D03*
G54D18*
X80750Y-57000D03*
G54D11*
X80750Y-58000D03*
X80750Y-59000D03*
X80750Y-60000D03*
X83750Y-60000D03*
X83750Y-59000D03*
X83750Y-57000D03*
X83750Y-58000D03*
G54D16*
X67500Y-62250D03*
X69500Y-62250D03*
X83500Y-61750D03*
X81500Y-61750D03*
X69500Y-54750D03*
X67500Y-54750D03*
X81500Y-55250D03*
X83500Y-55250D03*
G54D19*
X73000Y-58500D03*
G54D20*
X65500Y-57000D02*
X65500Y-55500D01*
X65500Y-55500D02*
X65750Y-55250D01*
X65750Y-55250D02*
X67000Y-56500D01*
X67000Y-56500D02*
X67000Y-57000D01*
G54D21*
X67500Y-59750D02*
X67500Y-59000D01*
X68000Y-58500D02*
X70750Y-58500D01*
X67500Y-59000D02*
X68000Y-58500D01*
G54D20*
X65500Y-60000D02*
X65500Y-61500D01*
X65500Y-61500D02*
X65750Y-61750D01*
X67500Y-59750D02*
X65750Y-61500D01*
X65750Y-61500D02*
X65750Y-61750D01*
X75250Y-54000D02*
X76500Y-54000D01*
X81500Y-55250D02*
X81500Y-56000D01*
X82500Y-57000D02*
X83750Y-57000D01*
X81500Y-56000D02*
X82500Y-57000D01*
X79750Y-54750D02*
X81000Y-54750D01*
X81000Y-54750D02*
X81500Y-55250D01*
X77750Y-54000D02*
X79000Y-54000D01*
X79000Y-54000D02*
X79750Y-54750D01*
X68000Y-60250D02*
X68000Y-60750D01*
X68000Y-60750D02*
X69500Y-62250D01*
X69500Y-62250D02*
X70000Y-61750D01*
X70000Y-61750D02*
X71061Y-61750D01*
X71750Y-61257D02*
X71553Y-61257D01*
X71553Y-61257D02*
X71061Y-61750D01*
X75250Y-59000D02*
X75250Y-59750D01*
X72257Y-60750D02*
X71750Y-61257D01*
X74250Y-60750D02*
X72257Y-60750D01*
X75250Y-59750D02*
X74250Y-60750D01*
X75250Y-63000D02*
X76500Y-63000D01*
X79750Y-62250D02*
X79000Y-63000D01*
X79000Y-63000D02*
X77750Y-63000D01*
X81500Y-61750D02*
X81000Y-62250D01*
X81000Y-62250D02*
X79750Y-62250D01*
X83750Y-60000D02*
X82500Y-60000D01*
X81500Y-61000D02*
X81500Y-61750D01*
X82500Y-60000D02*
X81500Y-61000D01*
X76500Y-58000D02*
X77750Y-58000D01*
X76500Y-59000D02*
X77750Y-59000D01*
X75250Y-58000D02*
X75250Y-56750D01*
X72007Y-54500D02*
X71750Y-54757D01*
X73000Y-54500D02*
X72007Y-54500D01*
X75250Y-56750D02*
X73000Y-54500D01*
X71061Y-55250D02*
X71257Y-55250D01*
X71257Y-55250D02*
X71750Y-54757D01*
X71061Y-55250D02*
X69500Y-55250D01*
X69500Y-54750D02*
X69500Y-55250D01*
X69500Y-55250D02*
X69500Y-56500D01*
X69500Y-56500D02*
X69000Y-57000D01*
X79250Y-59000D02*
X80250Y-60000D01*
X80250Y-60000D02*
X80750Y-60000D01*
X79250Y-58000D02*
X80750Y-58000D01*
M02*
